<svg width="1920" height="570" viewBox="0 0 1920 570" fill="none" xmlns="http://www.w3.org/2000/svg">
<rect width="1921" height="570" fill="url(#paint0_linear)"/>
<mask id="mask0" style="mask-type:alpha" maskUnits="userSpaceOnUse" x="0" y="0" width="1921" height="570">
<rect width="1921" height="570" fill="url(#paint1_linear)"/>
</mask>
<g mask="url(#mask0)">
<mask id="mask1" style="mask-type:alpha" maskUnits="userSpaceOnUse" x="963" y="41" width="858" height="529">
<rect x="963.35" y="41" width="857.65" height="528.977" fill="#C4C4C4"/>
</mask>
<g mask="url(#mask1)">
<path d="M1329.82 564.547C1368.73 558.232 1395.15 521.573 1388.83 482.667C1382.52 443.761 1345.86 417.341 1306.95 423.656C1268.05 429.971 1241.63 466.63 1247.94 505.536C1254.26 544.442 1290.92 570.862 1329.82 564.547Z" fill="#F79A45"/>
<path d="M1318.37 552.876C1350.81 552.876 1377.1 526.581 1377.1 494.143C1377.1 461.706 1350.81 435.41 1318.37 435.41C1285.93 435.41 1259.64 461.706 1259.64 494.143C1259.64 526.581 1285.93 552.876 1318.37 552.876Z" fill="#F8D24A"/>
<path opacity="0.22" d="M1338.14 438.837L1276.37 535.183C1278.84 537.705 1281.53 540.001 1284.41 542.045L1347.73 443.285C1344.68 441.512 1341.47 440.024 1338.14 438.837ZM1354.14 447.583L1291.01 546.097C1299.01 550.303 1307.87 552.598 1316.89 552.802L1371.12 468.219C1367.12 460.131 1361.31 453.071 1354.14 447.583ZM1319.87 435.455L1265.69 520.031C1267.4 523.506 1269.45 526.805 1271.81 529.879L1331.41 436.885C1327.62 436.028 1323.76 435.549 1319.87 435.455Z" fill="white"/>
<path d="M1418.51 564.543C1457.41 558.228 1483.83 521.569 1477.52 482.663C1471.2 443.757 1434.54 417.337 1395.64 423.652C1356.73 429.968 1330.31 466.627 1336.63 505.533C1342.94 544.439 1379.6 570.859 1418.51 564.543Z" fill="#F79A45"/>
<path d="M1407.06 552.876C1439.5 552.876 1465.79 526.581 1465.79 494.143C1465.79 461.706 1439.5 435.41 1407.06 435.41C1374.62 435.41 1348.33 461.706 1348.33 494.143C1348.33 526.581 1374.62 552.876 1407.06 552.876Z" fill="#F8D24A"/>
<path opacity="0.22" d="M1426.82 438.837L1365.06 535.183C1367.53 537.705 1370.22 540.001 1373.1 542.045L1436.42 443.285C1433.36 441.512 1430.15 440.023 1426.82 438.837ZM1442.83 447.583L1379.67 546.097C1387.66 550.303 1396.52 552.598 1405.55 552.802L1459.77 468.219C1455.78 460.135 1449.98 453.075 1442.83 447.583ZM1408.56 435.455L1354.34 520.031C1356.05 523.506 1358.1 526.805 1360.46 529.879L1420.06 436.885C1416.28 436.03 1412.43 435.551 1408.56 435.455Z" fill="white"/>
<path d="M1556.68 564.822C1595.75 559.589 1623.17 523.677 1617.94 484.611C1612.71 445.544 1576.8 418.117 1537.73 423.351C1498.66 428.584 1471.24 464.496 1476.47 503.562C1481.7 542.629 1517.61 570.056 1556.68 564.822Z" fill="#F79A45"/>
<path d="M1547.18 552.876C1579.62 552.876 1605.91 526.581 1605.91 494.143C1605.91 461.706 1579.62 435.41 1547.18 435.41C1514.74 435.41 1488.45 461.706 1488.45 494.143C1488.45 526.581 1514.74 552.876 1547.18 552.876Z" fill="#F8D24A"/>
<path opacity="0.22" d="M1566.95 438.837L1505.18 535.183C1507.65 537.706 1510.34 540.003 1513.21 542.045L1576.54 443.285C1573.48 441.512 1570.27 440.024 1566.95 438.837ZM1582.96 447.583L1519.79 546.097C1527.79 550.304 1536.65 552.599 1545.68 552.802L1599.91 468.219C1595.91 460.137 1590.11 453.078 1582.96 447.583ZM1548.69 435.455L1494.46 520.031C1496.17 523.509 1498.22 526.809 1500.59 529.879L1560.18 436.885C1556.41 436.03 1552.55 435.551 1548.68 435.455H1548.69Z" fill="white"/>
<path d="M1660.47 566.696C1699.49 560.389 1726.01 523.644 1719.71 484.623C1713.4 445.602 1676.65 419.082 1637.63 425.388C1598.61 431.694 1572.09 468.44 1578.4 507.461C1584.7 546.482 1621.45 573.002 1660.47 566.696Z" fill="#F79A45"/>
<path d="M1645.63 552.876C1678.06 552.876 1704.36 526.581 1704.36 494.143C1704.36 461.706 1678.06 435.41 1645.63 435.41C1613.19 435.41 1586.89 461.706 1586.89 494.143C1586.89 526.581 1613.19 552.876 1645.63 552.876Z" fill="#F8D24A"/>
<path opacity="0.22" d="M1665.39 438.837L1603.62 535.183C1606.09 537.705 1608.78 540.001 1611.66 542.045L1674.98 443.285C1671.93 441.512 1668.72 440.023 1665.39 438.837ZM1681.38 447.583L1618.22 546.097C1626.21 550.304 1635.07 552.599 1644.1 552.802L1698.32 468.219C1694.33 460.136 1688.53 453.076 1681.38 447.583ZM1647.11 435.455L1592.88 520.031C1594.6 523.506 1596.65 526.805 1599.01 529.879L1658.6 436.885C1654.83 436.03 1650.98 435.551 1647.11 435.455Z" fill="white"/>
<path d="M1754.15 564.315C1792.94 557.281 1818.67 520.139 1811.64 481.357C1804.61 442.574 1767.46 416.837 1728.68 423.871C1689.9 430.905 1664.16 468.047 1671.2 506.829C1678.23 545.612 1715.37 571.349 1754.15 564.315Z" fill="#F79A45"/>
<path d="M1741.41 552.876C1773.84 552.876 1800.14 526.581 1800.14 494.143C1800.14 461.706 1773.84 435.41 1741.41 435.41C1708.97 435.41 1682.67 461.706 1682.67 494.143C1682.67 526.581 1708.97 552.876 1741.41 552.876Z" fill="#F8D24A"/>
<path opacity="0.22" d="M1761.17 438.837L1699.4 535.183C1701.87 537.705 1704.56 540.001 1707.44 542.045L1770.76 443.285C1767.71 441.512 1764.5 440.023 1761.17 438.837ZM1777.18 447.583L1714.02 546.097C1722.01 550.304 1730.87 552.599 1739.9 552.802L1794.13 468.219C1790.13 460.134 1784.33 453.074 1777.18 447.583ZM1742.91 435.455L1688.68 520.031C1690.39 523.516 1692.43 526.824 1694.79 529.909L1754.38 436.915C1750.62 436.052 1746.77 435.562 1742.91 435.455Z" fill="white"/>
<path d="M1282.23 267.303C1282.23 267.303 1317.42 303.235 1343.66 332.112C1353.48 342.883 1364.49 324.156 1368.29 315.504C1375.66 298.761 1381.96 281.253 1394.35 267.394C1415.18 244.103 1445.91 233.241 1476.02 228.525C1506.12 223.81 1537.28 220.797 1567.08 227.473C1587.33 232.015 1605.74 240.613 1622.76 251.695C1648.68 268.506 1671.35 290.957 1692.35 313.241C1716.28 338.621 1764.89 378.527 1741.98 417.789C1731.77 435.319 1617.55 493.482 1617.55 493.482L1605.42 478.29C1605.42 478.29 1670.24 404.444 1673.16 398.684C1676.07 392.923 1633.34 363.577 1621.68 374.28C1610.02 384.983 1592.81 475.232 1592.81 475.232C1528.01 526.56 1448.22 475.232 1448.22 475.232C1443.68 472.311 1441.7 445.243 1440.61 440.111C1436.63 421.293 1440.03 404.452 1433.81 386.49C1431.06 378.542 1424.62 376.301 1416.51 379.147C1389.71 388.571 1367.04 431.747 1335.91 405.64C1315.33 388.382 1305.17 360.504 1294.07 337.047C1284.74 317.583 1276.66 297.542 1269.89 277.045C1276.49 275.16 1282.23 267.303 1282.23 267.303Z" fill="white"/>
<path d="M1526.4 499.151C1516.22 499.108 1506.07 497.926 1496.15 495.627C1479.17 491.713 1462.89 485.193 1447.9 476.298C1444.32 474.024 1442.38 458.349 1441.08 447.995C1440.67 444.721 1440.32 442.144 1440.09 440.885C1438.36 432.707 1438.01 424.839 1437.67 417.236C1437.22 407.026 1436.79 397.392 1433.27 387.235C1432.05 383.718 1430.08 381.285 1427.42 379.997C1424.48 378.579 1420.67 378.625 1416.41 380.126C1407.65 383.157 1399.18 389.979 1390.98 396.596C1374 410.24 1356.44 424.361 1335.21 406.594C1317.85 392.056 1308.03 370.408 1298.53 349.473C1296.69 345.41 1294.95 341.575 1293.15 337.77C1283.78 318.269 1275.68 298.184 1268.91 277.639L1268.78 277.268L1269.16 277.161C1275.58 275.335 1281.28 267.626 1281.32 267.55L1281.59 267.186L1281.9 267.512C1282.26 267.869 1317.51 303.835 1343.52 332.418C1345.74 334.859 1348.16 335.882 1350.73 335.45C1357.74 334.306 1364.63 322.618 1367.59 315.887C1368.73 313.31 1369.87 310.717 1370.95 308.117C1377.01 293.996 1383.23 279.398 1393.8 267.603C1411.9 247.388 1439.53 234.252 1475.91 228.56C1505.28 223.966 1536.7 220.662 1567.38 227.514C1586.38 231.758 1604.68 239.694 1623.33 251.769C1649.63 268.809 1672.45 291.487 1693.2 313.461C1696.23 316.66 1699.63 320.093 1703.25 323.724C1728.54 349.162 1763.2 383.991 1743.01 418.601C1732.83 436.034 1622.76 492.185 1618.07 494.565L1617.8 494.709L1605.25 479.004L1605.46 478.769C1606.11 478.011 1670.46 404.79 1673.32 399.128C1674 397.794 1671.37 393.951 1663.98 388.342C1651.24 378.678 1629.89 368.195 1622.31 375.146C1610.84 385.659 1593.64 475.131 1593.47 476.033V476.169L1593.36 476.253C1571.31 493.732 1547.44 499.151 1526.4 499.151ZM1422.6 378.208C1424.38 378.183 1426.16 378.561 1427.78 379.314C1430.62 380.694 1432.72 383.271 1434.01 386.993C1437.57 397.248 1438 406.943 1438.45 417.198C1438.79 424.778 1439.13 432.608 1440.85 440.734C1441.12 442.015 1441.45 444.614 1441.85 447.904C1443.04 457.493 1445.02 473.554 1448.31 475.661C1463.23 484.518 1479.43 491.005 1496.34 494.891C1521.89 500.72 1559.34 502.13 1592.77 475.767C1593.78 470.462 1610.28 385.181 1621.8 374.615C1629.7 367.361 1651.5 377.943 1664.45 387.758C1667.08 389.752 1675.54 396.49 1674.02 399.492C1671.16 405.139 1611 473.645 1606.25 479.08L1618.02 493.8C1624.29 490.601 1732.55 435.117 1742.37 418.275C1762.27 384.166 1727.86 349.571 1702.72 324.285C1699.11 320.647 1695.69 317.213 1692.66 314.007C1671.94 292.063 1649.17 269.422 1622.95 252.429C1604.38 240.392 1586.16 232.486 1567.24 228.257C1536.69 221.435 1505.36 224.732 1476.06 229.318C1439.86 234.98 1412.41 248.04 1394.39 268.119C1383.91 279.814 1377.72 294.36 1371.66 308.421C1370.54 311.023 1369.42 313.618 1368.3 316.205C1367.46 318.092 1359.89 334.73 1350.87 336.208C1348.03 336.67 1345.38 335.564 1342.98 332.926C1318.28 305.775 1285.23 271.969 1281.69 268.354C1280.49 269.908 1275.54 275.934 1269.76 277.775C1276.51 298.159 1284.56 318.089 1293.86 337.444C1295.67 341.234 1297.41 345.092 1299.25 349.154C1308.71 370.014 1318.5 391.601 1335.73 406.003C1356.48 423.376 1373.02 410.073 1390.54 395.998C1398.79 389.365 1407.31 382.513 1416.19 379.398C1418.24 378.645 1420.41 378.243 1422.6 378.208Z" fill="#97CAFF"/>
<path d="M1448.37 475.912C1448.37 475.912 1530.99 514.536 1592.81 475.912C1592.81 475.912 1640.07 540.999 1637.17 601.384C1634.26 661.77 1606.61 714.763 1617.55 736.351C1628.48 757.938 1641.55 811.876 1629.92 862.882C1618.28 913.887 1602.26 949.526 1602.26 949.526H1582.64C1582.64 949.526 1573.18 817.25 1558.62 783.237C1544.07 749.223 1535.34 708.407 1532.44 670.53C1529.53 632.654 1524.67 604.196 1520.79 601.415C1516.91 598.633 1502.17 712.307 1509.05 744.378C1515.94 776.449 1516.91 869.095 1483.92 949.556H1460.64C1460.64 949.556 1447.1 789.684 1437.63 751.347C1430.14 720.999 1422.85 552.556 1446.28 481.921C1446.94 479.814 1447.63 477.811 1448.37 475.912Z" fill="#4B4B4B"/>
<path d="M1582.9 475.912C1588.77 475.912 1605.16 478.915 1605.16 478.915L1617.38 493.985C1617.38 493.985 1609.31 498.325 1597.6 495.427C1585.89 492.528 1574.86 502.665 1568.99 501.223C1563.13 499.782 1577.03 475.912 1582.9 475.912Z" fill="#FEA086"/>
<path d="M1223.73 257.379C1233.51 261.502 1250.83 257.379 1250.83 257.379C1250.83 257.379 1238.4 254.013 1241.03 251.767C1243.67 249.52 1260.98 255.511 1267.01 255.511C1273.03 255.511 1282.06 267.863 1282.06 267.863C1278.67 280.207 1269.64 277.59 1269.64 277.59C1269.64 277.59 1262.49 270.48 1250.45 271.978C1238.4 273.475 1212.41 263.74 1212.35 259.565C1212.29 255.39 1213.97 253.295 1223.73 257.379Z" fill="#FEA086"/>
<path d="M1539.76 145.976C1545.42 148.531 1550.6 152.481 1553.74 157.849C1557.52 164.331 1558.05 172.254 1557.36 179.76C1557.13 182.186 1556.91 184.718 1556.66 187.341C1555.2 202.004 1552.66 218.562 1542.65 229.154C1534.67 237.592 1523.24 239.01 1512.25 237.403C1490.7 234.196 1484.72 197.713 1484.72 197.713C1484.72 197.713 1481.92 182.08 1484.72 168.456C1490.01 142.572 1518.5 136.378 1539.76 145.976Z" fill="#FEA086"/>
<path d="M1481.86 155.713C1481.19 161.133 1475.84 167.154 1477 171.967C1478.16 176.781 1484.86 188.154 1484.86 188.154C1484.29 191.768 1484.76 198.73 1484.76 203.581C1484.76 210.809 1479.39 230.078 1483.26 237.602C1487.13 245.126 1497.3 250.25 1502.38 249.544C1507.45 248.838 1508.65 258.382 1524.79 258.981C1540.92 259.581 1539.1 250.25 1545.69 249.544C1552.28 248.838 1565.11 238.809 1562.59 229.805C1560.06 220.8 1561.52 213.55 1562.42 206.922C1563.02 202.526 1561.89 192.838 1561.06 186.818C1563 185.239 1564.76 183.458 1566.33 181.503C1571.41 175.346 1572 171.732 1569.34 167.518C1566.68 163.305 1562.86 154.566 1562.96 147.946C1563.07 141.325 1558.59 137.104 1555.6 136.201C1552.61 135.297 1551.72 127.174 1548.43 121.145C1545.14 115.117 1524.51 109.104 1522.44 116.028C1520.36 122.952 1515.57 126.27 1511.39 124.16C1507.21 122.049 1493.77 122.952 1494.07 129.884C1494.37 136.816 1494.66 137.712 1491.68 141.022C1488.7 144.332 1482.56 150.292 1481.86 155.713ZM1497.49 172.476C1501.15 170.194 1504.61 167.603 1507.84 164.732C1510.43 162.454 1512.99 159.714 1513.6 156.282C1513.64 155.624 1513.84 154.986 1514.18 154.422C1515.21 153.101 1517.27 154.012 1518.7 154.885C1522.07 156.939 1525.82 158.273 1529.73 158.803C1533.18 159.266 1536.73 159.099 1540.05 160.116C1543.81 161.278 1546.96 163.859 1550.01 166.387C1553.98 169.69 1558.29 173.645 1558.46 178.831C1558.53 181.222 1557.71 183.53 1556.85 185.77C1554.26 192.747 1551.41 200.097 1545.55 204.629C1544.7 205.345 1543.71 205.879 1542.64 206.201C1541.06 206.611 1539.4 206.261 1537.8 205.973C1528.23 204.261 1518.41 204.754 1509.06 207.415C1507.19 207.947 1505.1 208.547 1503.4 207.62C1503.04 207.416 1502.72 207.161 1502.44 206.861C1501.97 206.374 1501.54 205.848 1501.16 205.29C1494.24 195.602 1482.94 181.556 1497.49 172.476Z" fill="#3A3A3A"/>
<path d="M1526.11 210.317C1529.47 210.317 1533.75 212.436 1533.23 214.319C1533.03 215.067 1532.05 215.78 1529.95 216.299C1527.13 216.992 1518.29 217.927 1516.91 214.437C1515.72 211.411 1518.98 210.317 1526.11 210.317Z" fill="#FEA086"/>
</g>
<path d="M1256.02 257.66C1307.49 253.401 1345.76 208.225 1341.51 156.755C1337.25 105.286 1292.07 67.0148 1240.6 71.2734C1189.13 75.5321 1150.86 120.708 1155.12 172.177C1159.38 223.647 1204.55 261.918 1256.02 257.66Z" fill="#F79A45"/>
<path d="M1302.73 218.866C1332.78 188.813 1332.78 140.089 1302.73 110.037C1272.67 79.9849 1223.95 79.985 1193.9 110.037C1163.84 140.089 1163.84 188.813 1193.9 218.866C1223.95 248.918 1272.67 248.918 1302.73 218.866Z" fill="#F8D24A"/>
<path opacity="0.22" d="M1274.2 91.9759L1193.28 218.218C1196.52 221.524 1200.05 224.533 1203.83 227.207L1286.79 97.8074C1282.78 95.4855 1278.57 93.5337 1274.2 91.9759ZM1295.18 103.437L1212.42 232.549C1222.89 238.074 1234.5 241.097 1246.34 241.379L1317.38 130.557C1312.16 119.936 1304.57 110.658 1295.19 103.437H1295.18ZM1250.28 87.5273L1179.23 198.368C1181.48 202.922 1184.17 207.243 1187.26 211.267L1265.38 89.4059C1260.42 88.2982 1255.37 87.6833 1250.29 87.5702L1250.28 87.5273Z" fill="white"/>
<path d="M1186.23 530.3H961.913V570.22H1186.23V530.3Z" fill="#F79A45"/>
<path d="M1170.92 530.3H1040V570.22H1170.92V530.3Z" fill="#F8AD43"/>
<path d="M1147.97 530.3H1127V570.22H1147.97V530.3Z" fill="#F8D24A"/>
<g style="mix-blend-mode:multiply" opacity="0.5">
<path d="M1186.23 564.269H961.913V570.22H1186.23V564.269Z" fill="#F79A45"/>
</g>
<path d="M1169.96 490.379H945.644V530.3H1169.96V490.379Z" fill="#F79A45"/>
<path d="M1154.65 490.379H1023.73V530.3H1154.65V490.379Z" fill="#F8AD43"/>
<path d="M1131.69 490.379H1110.72V530.3H1131.69V490.379Z" fill="#F8D24A"/>
<g style="mix-blend-mode:multiply" opacity="0.5">
<path d="M1169.96 524.348H945.644V530.3H1169.96V524.348Z" fill="#F79A45"/>
</g>
<path d="M1186.23 450.459H961.913V490.379H1186.23V450.459Z" fill="#F79A45"/>
<path d="M1170.92 450.459H1040V490.379H1170.92V450.459Z" fill="#F8AD43"/>
<path d="M1147.97 450.459H1127V490.379H1147.97V450.459Z" fill="#F8D24A"/>
<g style="mix-blend-mode:multiply" opacity="0.5">
<path d="M1186.23 484.428H961.913V490.379H1186.23V484.428Z" fill="#F79A45"/>
</g>
<path d="M1026.56 90.5C1023.87 95.1667 1017.13 95.1667 1014.44 90.5L998.416 62.75C995.722 58.0833 999.09 52.25 1004.48 52.25L1036.52 52.25C1041.91 52.25 1045.28 58.0833 1042.58 62.75L1026.56 90.5Z" fill="white"/>
<path d="M699.438 469.5C702.132 464.833 708.868 464.833 711.562 469.5L721.521 486.75C724.216 491.417 720.848 497.25 715.459 497.25L695.541 497.25C690.152 497.25 686.784 491.417 689.479 486.75L699.438 469.5Z" fill="white"/>
<path d="M1026.13 116.25C1023.63 120.583 1017.37 120.583 1014.87 116.25L998.849 88.5C996.348 84.1667 999.475 78.75 1004.48 78.75L1036.52 78.75C1041.53 78.75 1044.65 84.1667 1042.15 88.5L1026.13 116.25Z" stroke="white"/>
<path d="M699.871 449.75C702.373 445.417 708.627 445.417 711.129 449.75L721.088 467C723.59 471.333 720.463 476.75 715.459 476.75L695.541 476.75C690.537 476.75 687.41 471.333 689.912 467L699.871 449.75Z" stroke="white"/>
<path d="M1026.13 145.25C1023.63 149.583 1017.37 149.583 1014.87 145.25L998.849 117.5C996.348 113.167 999.475 107.75 1004.48 107.75L1036.52 107.75C1041.53 107.75 1044.65 113.167 1042.15 117.5L1026.13 145.25Z" stroke="white"/>
<path d="M699.871 426.75C702.373 422.417 708.627 422.417 711.129 426.75L721.088 444C723.59 448.333 720.463 453.75 715.459 453.75L695.541 453.75C690.537 453.75 687.41 448.333 689.912 444L699.871 426.75Z" stroke="white"/>
<path opacity="0.4" d="M1637 36C1637 33.2386 1639.24 31 1642 31H1802.98C1804.31 31 1805.59 31.5296 1806.53 32.4717L1816.49 42.4717C1818.43 44.4227 1818.43 47.5773 1816.49 49.5283L1806.53 59.5283C1805.59 60.4704 1804.31 61 1802.98 61H1642C1639.24 61 1637 58.7614 1637 56V36Z" fill="url(#paint2_linear)"/>
<path opacity="0.6" d="M756 259C756 256.239 758.239 254 761 254H921.984C923.314 254 924.589 254.53 925.527 255.472L935.486 265.472C937.429 267.423 937.429 270.577 935.486 272.528L925.527 282.528C924.589 283.47 923.314 284 921.984 284H761C758.239 284 756 281.761 756 279V259Z" fill="url(#paint3_linear)"/>
<path opacity="0.6" d="M-13 482C-13 479.239 -10.7614 477 -8 477H152.984C154.314 477 155.589 477.53 156.527 478.472L166.486 488.472C168.429 490.423 168.429 493.577 166.486 495.528L156.527 505.528C155.589 506.47 154.314 507 152.984 507H-7.99999C-10.7614 507 -13 504.761 -13 502V482Z" fill="url(#paint4_linear)"/>
<path opacity="0.6" d="M100 24C100 21.2386 102.239 19 105 19H265.984C267.314 19 268.589 19.5296 269.527 20.4717L279.486 30.4717C281.429 32.4227 281.429 35.5773 279.486 37.5283L269.527 47.5283C268.589 48.4704 267.314 49 265.984 49H105C102.239 49 100 46.7614 100 44V24Z" fill="url(#paint5_linear)"/>
<g opacity="0.2">
<circle cx="455.581" cy="485.669" r="8.58065" fill="white"/>
<circle cx="494.194" cy="485.669" r="8.58065" fill="white"/>
<circle cx="532.806" cy="485.669" r="8.58065" fill="white"/>
<circle cx="571.419" cy="485.669" r="8.58065" fill="white"/>
<circle cx="455.581" cy="518.919" r="8.58065" fill="white"/>
<circle cx="494.194" cy="518.919" r="8.58065" fill="white"/>
<circle cx="532.806" cy="518.919" r="8.58065" fill="white"/>
<circle cx="571.419" cy="518.919" r="8.58065" fill="white"/>
<circle cx="455.581" cy="552.169" r="8.58065" fill="white"/>
<circle cx="494.194" cy="552.169" r="8.58065" fill="white"/>
<circle cx="532.806" cy="552.169" r="8.58065" fill="white"/>
<circle cx="571.419" cy="552.169" r="8.58065" fill="white"/>
</g>
<g opacity="0.2">
<circle cx="562.581" cy="22.3306" r="8.58065" fill="white"/>
<circle cx="601.194" cy="22.3306" r="8.58065" fill="white"/>
<circle cx="639.806" cy="22.3306" r="8.58065" fill="white"/>
<circle cx="678.419" cy="22.3306" r="8.58065" fill="white"/>
</g>
<g opacity="0.2">
<circle cx="1424.68" cy="11.5" r="5.67742" fill="white"/>
<circle cx="1450.23" cy="11.5" r="5.67742" fill="white"/>
<circle cx="1475.77" cy="11.5" r="5.67742" fill="white"/>
<circle cx="1501.32" cy="11.5" r="5.67742" fill="white"/>
<circle cx="1424.68" cy="33.5" r="5.67742" fill="white"/>
<circle cx="1450.23" cy="33.5" r="5.67742" fill="white"/>
<circle cx="1475.77" cy="33.5" r="5.67742" fill="white"/>
<circle cx="1501.32" cy="33.5" r="5.67742" fill="white"/>
</g>
<g opacity="0.2">
<circle cx="1831.35" cy="219.927" r="7.35484" fill="white"/>
<circle cx="1864.45" cy="219.927" r="7.35484" fill="white"/>
<circle cx="1897.55" cy="219.927" r="7.35484" fill="white"/>
<circle cx="1831.35" cy="248.427" r="7.35484" fill="white"/>
<circle cx="1864.45" cy="248.427" r="7.35484" fill="white"/>
<circle cx="1897.55" cy="248.427" r="7.35484" fill="white"/>
<circle cx="1831.35" cy="276.927" r="7.35484" fill="white"/>
<circle cx="1864.45" cy="276.927" r="7.35484" fill="white"/>
<circle cx="1897.55" cy="276.927" r="7.35484" fill="white"/>
<circle cx="1831.35" cy="305.427" r="7.35484" fill="white"/>
<circle cx="1864.45" cy="305.427" r="7.35484" fill="white"/>
<circle cx="1897.55" cy="305.427" r="7.35484" fill="white"/>
</g>
</g>
<defs>
<linearGradient id="paint0_linear" x1="7.26016e-06" y1="284.435" x2="2688.5" y2="284.435" gradientUnits="userSpaceOnUse">
<stop stop-color="#FC8B39"/>
<stop offset="1" stop-color="#2A2932"/>
</linearGradient>
<linearGradient id="paint1_linear" x1="7.26016e-06" y1="284.435" x2="2688.5" y2="284.435" gradientUnits="userSpaceOnUse">
<stop stop-color="#FC8B39"/>
<stop offset="1" stop-color="#2A2932"/>
</linearGradient>
<linearGradient id="paint2_linear" x1="1820" y1="61" x2="1653.81" y2="61" gradientUnits="userSpaceOnUse">
<stop stop-color="white"/>
<stop offset="0.903874" stop-color="white" stop-opacity="0"/>
</linearGradient>
<linearGradient id="paint3_linear" x1="939" y1="284" x2="772.806" y2="284" gradientUnits="userSpaceOnUse">
<stop stop-color="white"/>
<stop offset="0.903874" stop-color="white" stop-opacity="0"/>
</linearGradient>
<linearGradient id="paint4_linear" x1="170" y1="507" x2="3.80612" y2="507" gradientUnits="userSpaceOnUse">
<stop stop-color="white"/>
<stop offset="0.903874" stop-color="white" stop-opacity="0"/>
</linearGradient>
<linearGradient id="paint5_linear" x1="283" y1="49" x2="116.806" y2="49" gradientUnits="userSpaceOnUse">
<stop stop-color="white"/>
<stop offset="0.903874" stop-color="white" stop-opacity="0"/>
</linearGradient>
</defs>
</svg>
