<svg width="94" height="93" viewBox="0 0 94 93" fill="none" xmlns="http://www.w3.org/2000/svg">
<path d="M0 71.3069V15.8635C0.0367889 15.8169 0.0931992 15.7752 0.107915 15.7213C1.22385 11.8217 3.54155 10.0803 7.58833 10.0803C18.1737 10.0803 28.7591 10.0803 39.3445 10.0803C39.7107 10.0631 40.0776 10.0869 40.4384 10.1514C40.7472 10.2 41.0257 10.3646 41.2172 10.6117C41.4086 10.8588 41.4985 11.1696 41.4685 11.4807C41.4814 11.7921 41.3769 12.097 41.1757 12.335C40.9745 12.5731 40.6912 12.7268 40.382 12.7659C39.989 12.8221 39.5916 12.8426 39.1949 12.8272C28.5785 12.8272 17.962 12.8272 7.34552 12.8272C4.40241 12.8272 2.75427 14.4901 2.75427 17.443V63.2084H5.50853V17.7471C5.50853 15.8905 5.82737 15.5741 7.71587 15.5741C19.127 15.5741 30.5389 15.5798 41.9516 15.5913C42.6874 15.5913 43.021 15.4221 43.2245 14.6765C43.7935 12.5844 44.4508 10.5193 45.1032 8.44933C45.8611 5.97467 47.7275 4.99363 50.2144 5.72941C53.6088 6.74723 57.0057 7.7528 60.3706 8.82949C61.1187 9.07475 61.5209 8.91778 61.9452 8.30218C62.5534 7.42415 63.2254 6.58536 63.9073 5.76865C64.3628 5.20578 64.9528 4.76672 65.6228 4.49196C66.2927 4.2172 67.0211 4.1156 67.7407 4.19653C70.4802 4.44179 73.2173 4.72629 75.9569 4.98872C77.4039 5.12607 78.8534 5.23398 80.3372 5.37868C80.3593 3.76978 81.1956 2.96288 82.5862 2.5533C83.9769 2.14371 85.3699 1.62622 86.7557 1.17249C88.7177 0.534811 89.944 1.20927 90.4836 3.21304C91.5922 7.20096 92.6811 11.1668 93.7382 15.1523C93.9005 15.7712 93.9829 16.4083 93.9834 17.0481C93.9982 34.5433 94.0031 52.0442 93.9982 69.5508C93.9982 74.1936 91.163 77.019 86.4981 77.0214H59.6349C59.7599 77.4163 59.8384 77.7033 59.939 77.9829C61.1391 81.284 62.3409 84.5844 63.5443 87.884C64.0618 89.3089 64.0593 89.3065 65.6118 89.385C65.8567 89.3863 66.1003 89.4218 66.3353 89.4904C66.6182 89.5719 66.8632 89.7508 67.027 89.9953C67.1908 90.2399 67.2629 90.5345 67.2305 90.8271C67.2383 91.1217 67.1398 91.4093 66.9529 91.6372C66.7659 91.8652 66.5032 92.0181 66.2127 92.0681C65.9119 92.1231 65.6058 92.1436 65.3003 92.1294H28.6684C28.4226 92.1379 28.1765 92.1264 27.9326 92.0951C27.1968 91.9798 26.7873 91.5383 26.7725 90.7903C26.7556 90.6289 26.7709 90.4658 26.8175 90.3104C26.864 90.1549 26.941 90.0103 27.0439 89.8848C27.1468 89.7594 27.2735 89.6556 27.4168 89.5794C27.5601 89.5033 27.7171 89.4564 27.8787 89.4414C28.2385 89.3684 28.6073 89.3502 28.9725 89.3874C29.6617 89.4708 29.9952 89.2133 30.2331 88.5437C31.4962 84.9727 32.8133 81.4312 34.1082 77.8627C34.199 77.6174 34.2554 77.355 34.3535 77.019H33.164C24.4982 77.019 15.8397 77.019 7.18856 77.019C3.59796 77.019 1.09387 75.0569 0.16188 71.6233C0.120642 71.5118 0.0662958 71.4056 0 71.3069ZM42.0473 18.402H8.32411V63.2035H28.352V42.2314C26.3409 41.8071 25.6787 40.9806 25.6713 38.967C25.6713 38.3244 25.6713 37.6818 25.6713 37.0392C25.6836 34.8981 26.672 33.9097 28.8254 33.9024C31.4545 33.9024 34.0837 33.9024 36.7153 33.9024H37.6964L37.4757 33.7086C38.984 28.6342 40.5046 23.5598 42.0473 18.402ZM31.1848 42.1627V62.0483C31.1848 63.2501 31.1848 63.2526 32.411 63.2526H64.3414C65.5677 63.2526 65.5677 63.2526 65.5677 62.0508C65.5677 55.7803 65.5677 49.509 65.5677 43.2369V42.2068C65.006 42.1799 64.5523 42.1823 64.0961 42.1357C63.3481 42.0572 62.9459 41.5986 62.8698 40.8702C62.7987 40.0412 63.4168 39.4379 64.3904 39.4182C65.6633 39.3913 66.9387 39.4182 68.2214 39.4182V36.7327H28.4869V39.4084H57.9916C59.4215 39.4084 60.0641 39.8254 60.0861 40.7549C60.1107 41.736 59.4828 42.1627 57.9794 42.1627H31.1848ZM62.6 33.9024H63.6375C65.1655 33.9024 66.6959 33.8803 68.2238 33.9024C70.0265 33.9367 71.059 34.9889 71.0811 36.7743C71.0811 37.7235 71.1032 38.6727 71.0811 39.6194C71.0774 40.1128 70.9275 40.594 70.6503 41.0022C70.3731 41.4104 69.981 41.7272 69.5237 41.9125C69.1535 42.0546 68.7731 42.1686 68.3857 42.2534V63.1765H85.7059V20.5701C85.4386 20.4352 85.1296 20.3689 84.9702 20.1801C84.4061 19.5228 83.9033 19.7901 83.3073 20.1409C81.3599 21.2911 79.3831 22.3997 77.4211 23.5181C75.9202 24.4153 74.2322 24.9534 72.4889 25.0902C70.2816 25.2251 68.0914 25.2889 65.8939 25.436C65.5873 25.4581 65.109 25.7107 65.0306 25.9609C64.1967 28.5385 63.429 31.1456 62.5951 33.9024H62.6ZM91.2267 66.0755H2.76899C2.76899 67.6084 2.71258 69.075 2.78616 70.5368C2.84993 71.7631 3.47288 72.7441 4.45392 73.4799C5.35648 74.1617 6.39638 74.2794 7.49269 74.2794C33.8287 74.2696 60.1662 74.2696 86.5055 74.2794C86.7802 74.2794 87.0549 74.2794 87.3296 74.2672C89.3627 74.1666 91.082 72.5773 91.2096 70.549C91.3003 69.075 91.2267 67.6059 91.2267 66.0755ZM62.2395 25.5684C61.1628 25.6224 60.248 25.6788 59.3356 25.7107C57.9965 25.7573 57.013 25.0559 56.7653 23.8418C56.6417 23.244 56.5679 22.6369 56.5446 22.0269C56.4857 21.0243 56.7906 20.0341 57.4034 19.2383C58.0162 18.4426 58.8957 17.8948 59.8801 17.6956C60.9494 17.4504 62.0212 17.1119 63.1077 17.0457C64.6063 16.9525 65.2685 16.2142 65.5407 14.8065C65.7712 13.6096 65.6805 13.2908 64.491 12.9302C59.6185 11.4489 54.7419 9.97076 49.8613 8.49593C48.2597 8.00541 48.0586 8.11823 47.5779 9.70016L41.8903 28.4478C41.4464 29.9193 40.9927 31.3639 40.5806 32.833C40.4408 33.3236 40.2839 33.9048 41.1668 33.9048C47.1585 33.9048 53.1502 33.9048 59.1419 33.8803C59.2888 33.8604 59.4288 33.8054 59.55 33.72C59.6712 33.6347 59.7702 33.5214 59.8384 33.3898C60.6551 30.8342 61.4203 28.2638 62.2395 25.5684ZM61.0623 89.3359C61.0349 89.1704 60.998 89.0067 60.9519 88.8454C59.5883 85.0905 58.2099 81.338 56.8683 77.5757C56.6746 77.0361 56.3337 77.0214 55.8873 77.0214C49.9594 77.0214 44.029 77.0361 38.1011 77.0214C37.5051 77.0214 37.2623 77.2274 37.0685 77.7719C35.7907 81.3625 34.4712 84.9409 33.1689 88.5241C33.0782 88.7694 33.0119 89.0293 32.9236 89.3433L61.0623 89.3359ZM68.1503 16.0033C69.5335 15.7949 70.2276 16.1333 70.3772 17.0457C70.5268 17.958 70.0191 18.4657 68.7585 18.7208C66.1514 19.2457 63.5394 19.7362 60.9421 20.3003C60.4516 20.4082 59.8114 20.6682 59.576 21.0606C59.3405 21.453 59.3847 22.1593 59.4435 22.7112C59.4435 22.8068 60.1352 22.8902 60.5006 22.8755C63.5271 22.7627 66.5536 22.5272 69.5752 22.5248C72.4791 22.5248 75.1132 21.8699 77.5682 20.2929C79.4371 19.0911 81.4139 18.0611 83.3735 16.9378C82.6377 14.1565 81.9461 11.439 81.2005 8.73383C81.1404 8.59598 81.0487 8.47421 80.9328 8.37835C80.8169 8.28249 80.6801 8.21523 80.5334 8.182C76.2144 7.74789 71.8978 7.32114 67.5666 6.9557C67.0228 6.94336 66.4955 7.14201 66.095 7.50999C65.3862 8.21143 64.8294 9.06248 64.1991 9.86693C68.5795 11.8805 68.5819 11.8805 68.1503 16.0009V16.0033ZM91.1924 63.2158V19.1304L88.546 19.9765V63.2133L91.1924 63.2158ZM87.798 3.73545L83.2092 5.26832L86.4393 17.7471L91.1801 16.2265C90.047 12.0203 88.9286 7.91222 87.798 3.73545Z" fill="white"/>
<path d="M41.498 52.6794C41.5075 52.3165 41.6607 51.9721 41.924 51.7221C42.0544 51.5984 42.2079 51.5015 42.3757 51.437C42.5435 51.3725 42.7224 51.3418 42.9021 51.3464C43.0819 51.3511 43.2589 51.3911 43.4232 51.4642C43.5874 51.5373 43.7356 51.642 43.8594 51.7724C43.9832 51.9028 44.0801 52.0563 44.1446 52.2241C44.209 52.392 44.2398 52.5708 44.2351 52.7506C44.2257 53.1135 44.0725 53.4579 43.8091 53.7078C43.5458 53.9578 43.194 54.093 42.831 54.0835C42.468 54.0741 42.1237 53.9209 41.8737 53.6576C41.6237 53.3942 41.4886 53.0424 41.498 52.6794Z" fill="white"/>
<path d="M49.7459 52.7089C49.7309 53.0621 49.5801 53.3959 49.3249 53.6406C49.0696 53.8853 48.7297 54.0219 48.3761 54.0219C48.0225 54.0219 47.6826 53.8853 47.4274 53.6406C47.1722 53.3959 47.0213 53.0621 47.0064 52.7089C46.9985 52.5241 47.0282 52.3397 47.0935 52.1667C47.1588 51.9937 47.2584 51.8357 47.3864 51.7022C47.5144 51.5687 47.668 51.4624 47.8381 51.3899C48.0082 51.3173 48.1912 51.2799 48.3761 51.2799C48.561 51.2799 48.7441 51.3173 48.9142 51.3899C49.0842 51.4624 49.2379 51.5687 49.3659 51.7022C49.4938 51.8357 49.5935 51.9937 49.6588 52.1667C49.7241 52.3397 49.7537 52.5241 49.7459 52.7089Z" fill="white"/>
<path d="M55.2522 52.6892C55.245 53.0437 55.1007 53.3815 54.8497 53.6319C54.5987 53.8823 54.2605 54.0257 53.906 54.032C53.5516 54.0384 53.2084 53.9072 52.9486 53.6659C52.6888 53.4247 52.5326 53.0922 52.5127 52.7383C52.5023 52.5541 52.5292 52.3697 52.5918 52.1962C52.6543 52.0227 52.7513 51.8636 52.8768 51.7284C53.0023 51.5932 53.1538 51.4847 53.3222 51.4095C53.4906 51.3342 53.6725 51.2938 53.857 51.2905C54.0414 51.2872 54.2246 51.3211 54.3956 51.3903C54.5666 51.4594 54.7219 51.5624 54.8522 51.693C54.9824 51.8236 55.085 51.9792 55.1537 52.1503C55.2225 52.3215 55.256 52.5048 55.2522 52.6892Z" fill="white"/>
<path d="M46.9256 71.5105C46.1334 71.5105 45.3413 71.5301 44.5491 71.5105C43.6563 71.481 43.129 70.9783 43.1094 70.191C43.0898 69.4037 43.6392 68.793 44.5589 68.7758C46.1727 68.7464 47.7865 68.7489 49.4003 68.7758C50.3347 68.7905 50.889 69.3424 50.8866 70.1566C50.8841 70.9709 50.3372 71.4909 49.3929 71.5154C48.5713 71.5276 47.7473 71.5129 46.9256 71.5105Z" fill="white"/>
</svg>
