<svg width="97" height="98" viewBox="0 0 97 98" fill="none" xmlns="http://www.w3.org/2000/svg">
<path d="M45.6981 0.0285034H51.3872C52.6649 0.182585 53.9473 0.31059 55.2203 0.490747C64.7757 1.84429 73.2217 5.66788 80.4517 12.0658C88.9688 19.6016 94.2953 28.9792 96.2557 40.2224C96.5733 42.0477 96.7559 43.8943 97 45.7314V51.4206C96.9408 51.7548 96.872 52.0867 96.827 52.4233C96.5899 54.1751 96.4619 55.9434 96.1324 57.6763C94.3965 67.1528 89.8159 75.8759 83 82.6848C75.751 90.0096 67.0514 94.6107 56.8891 96.3767C55.0615 96.692 53.2149 96.8769 51.3777 97.1234H45.6886C43.8515 96.8864 42.0001 96.7015 40.1772 96.3744C27.3505 94.0726 16.9986 87.6463 9.3799 77.1071C0.433702 64.7332 -2.05531 50.9441 1.73747 36.1712C4.83569 24.1031 11.8571 14.7184 22.2018 7.82502C23.0007 7.29403 23.847 6.83179 24.7193 6.30554C25.2076 7.19684 25.639 7.9791 25.9828 8.60491C22.9959 10.8213 20.1229 12.9547 17.3139 15.036C19.298 17.0225 21.1067 18.8288 22.958 20.6873C26.2071 17.6873 29.9571 15.2804 34.0377 13.5758C38.1616 11.8732 42.5496 10.8987 47.0066 10.6957V2.73085C44.162 3.15043 41.4359 3.41355 38.7668 3.99432C36.0976 4.57509 33.5161 5.48061 30.8209 6.26287C30.508 5.5138 30.1619 4.6865 29.7992 3.81416C33.0659 2.41039 36.4874 1.39903 39.9923 0.801279C41.8887 0.488376 43.7969 0.282145 45.6981 0.0285034ZM65.4963 79.2571C73.793 74.4071 79.449 67.4995 82.1039 58.3044C84.7589 49.1093 83.7964 40.175 79.1977 31.8119C70.472 15.9463 51.8826 9.32553 35.121 16.2663C19.0657 22.9037 10.8615 39.7602 14.3864 55.9885C16.3539 65.0556 21.211 72.3448 28.8937 77.4982C39.1105 84.3584 50.1214 85.3208 61.6727 81.1203C62.0331 82.0235 62.3625 82.8555 62.7015 83.7018C58.6777 85.3254 54.4084 86.2575 50.074 86.4586V94.2433C61.5092 93.7171 71.3111 89.5474 79.5628 82.0045C77.7209 80.1484 75.9312 78.3421 74.2315 76.6235L66.9518 81.8931C66.3876 80.8619 65.9538 80.082 65.4963 79.2571ZM50.0337 2.91101V10.6957C59.5156 11.1935 67.7127 14.6947 74.5705 21.0855L80.0463 15.5978C71.6548 7.7302 61.7201 3.43726 50.0337 2.91101ZM3.03412 50.0599C2.60032 59.4731 9.37516 75.4241 15.574 79.9849L21.0261 74.5446C14.6827 67.7152 11.236 59.5276 10.7358 50.0599H3.03412ZM81.8242 79.7549C89.4643 71.3184 93.6268 61.488 94.108 50.0694H86.3329C85.8588 59.3664 82.4879 67.4403 76.3508 74.2673L81.8242 79.7549ZM10.7382 47.0992C11.2123 37.7903 14.5807 29.7117 20.6776 22.9629L15.1805 17.4539C7.61626 25.8099 3.50348 35.6687 2.95589 47.0992H10.7382ZM76.6992 23.2877C76.9884 23.6456 77.2824 24.013 77.5858 24.3734C80.3876 27.7156 82.5783 31.5256 84.0572 35.6284C85.2949 38.9428 86.0214 42.4261 86.212 45.959C86.2523 46.836 86.4822 47.2248 87.4802 47.1703C89.2699 47.0707 91.0715 47.1442 92.8659 47.1395C93.2618 47.1395 93.6553 47.1015 94.1152 47.0778C93.5865 35.8062 89.5852 26.1038 82.1916 17.8071L76.6992 23.2877ZM23.2757 77.0526C21.5405 78.7783 19.746 80.5656 17.9255 82.3814C26.1605 89.7299 35.8511 93.7289 47.1061 94.2457C47.1061 91.8539 47.0753 89.5877 47.1251 87.3239C47.1393 86.6127 46.8738 86.3544 46.2172 86.3757C45.9967 86.3757 45.7763 86.3472 45.5558 86.3306C40.2262 85.9858 35.0455 84.4292 30.4084 81.7793C27.91 80.3286 25.5821 78.591 23.2757 77.0526Z" fill="#FF6B00"/>
<path d="M48.5379 28.012C48.7963 28.3344 49.012 28.5904 49.2158 28.8607C53.9473 35.1772 58.6835 41.4914 63.4245 47.8032C63.8607 48.384 63.8773 48.7514 63.4245 49.3369C58.6503 55.6582 53.8952 61.9976 49.1589 68.3553C48.9764 68.5923 48.7773 68.8294 48.5308 69.1399C48.2724 68.8175 48.0567 68.5615 47.8528 68.2913C43.1261 61.9747 38.393 55.6606 33.6536 49.3487C33.2174 48.768 33.1985 48.4006 33.6536 47.815C38.4278 41.4938 43.1822 35.1543 47.9168 28.7967C48.0922 28.5525 48.2913 28.3178 48.5379 28.012ZM48.5592 64.3966C52.4444 59.2076 56.2372 54.1276 60.0537 49.0667C60.4282 48.5712 60.1935 48.2915 59.9162 47.9241C56.302 43.1025 52.6902 38.2825 49.0807 33.4641C48.9195 33.2484 48.7322 33.0493 48.5474 32.8312C48.4574 32.9043 48.3727 32.9835 48.2937 33.0683C44.5483 38.0653 40.799 43.0575 37.0458 48.045C36.6428 48.5807 36.8917 48.8747 37.1856 49.2658C40.784 54.0621 44.3777 58.8599 47.9666 63.6593C48.1301 63.8798 48.3103 64.0884 48.5592 64.3966Z" fill="#FF6B00"/>
<path d="M18.2693 49.9177V47.1869H21.1826V49.9177H18.2693Z" fill="#FF6B00"/>
<path d="M78.7971 49.958H75.8861V47.2177H78.7971V49.958Z" fill="#FF6B00"/>
<path d="M47.0991 18.2954H49.9935V21.0571H47.0991V18.2954Z" fill="#FF6B00"/>
<path d="M25.8406 28.6497V25.9118H28.7539V28.6497H25.8406Z" fill="#FF6B00"/>
<path d="M69.8248 27.4194H72.75V30.1573H69.8248V27.4194Z" fill="#FF6B00"/>
<path d="M24.3282 69.7207V66.978H27.2416V69.7207H24.3282Z" fill="#FF6B00"/>
<path d="M69.8248 69.7207V66.9756H72.7381V69.7207H69.8248Z" fill="#FF6B00"/>
<path d="M47.0682 78.8399V76.121H49.9934V78.847L47.0682 78.8399Z" fill="#FF6B00"/>
</svg>
