<svg width="98" height="97" viewBox="0 0 98 97" fill="none" xmlns="http://www.w3.org/2000/svg">
<g opacity="0.2">
<path d="M0 47.4679V18.9483C12.4491 12.7263 24.8949 6.49671 37.3376 0.259424C38.0439 -0.0946776 38.5664 -0.0812756 39.2632 0.268998C51.3932 6.36337 63.5328 12.4341 75.682 18.4813C76.35 18.8143 76.5855 19.1665 76.5816 19.9188C76.5491 27.9253 76.5663 35.9299 76.5453 43.9345C76.5453 44.5795 76.6811 44.8456 77.3721 45.0102C87.1932 47.3511 93.7316 53.3211 96.8515 62.9335C97.4258 64.6714 97.6172 66.5262 98 68.3292V72.5402C97.8564 73.4149 97.755 74.2992 97.5655 75.1643C95.2916 85.5003 89.1953 92.5402 79.0163 95.396C68.7627 98.2671 59.8393 95.4228 52.52 87.6593C52.1563 87.2765 51.8117 86.8688 51.4481 86.4611C47.2773 89.2461 43.1506 91.9679 39.0641 94.7452C38.4516 95.1605 38.0516 95.1108 37.4716 94.7222C32.1122 91.1123 26.6935 87.5655 21.338 83.9384C10.0909 76.3147 3.18692 65.8275 0.721605 52.4444C0.419183 50.8002 0.237344 49.1273 0 47.4679ZM45.9375 48.1607C48.9043 48.9053 51.7696 49.6499 54.6522 50.3198C55.035 50.4059 55.5786 50.2145 55.9021 49.9638C59.021 47.5116 62.6667 45.8172 66.5519 45.014C67.2448 44.8705 67.3903 44.591 67.3884 43.9402C67.3654 37.7846 67.3654 31.6284 67.3884 25.4715C67.3884 24.8494 67.2238 24.5278 66.64 24.2369C57.4321 19.6559 48.2344 15.0539 39.0469 10.4308C38.82 10.2963 38.5612 10.2254 38.2975 10.2254C38.0338 10.2254 37.775 10.2963 37.5482 10.4308C28.3607 15.0487 19.1585 19.6482 9.94164 24.2292C9.36742 24.5144 9.17601 24.8207 9.17601 25.4542C9.2009 31.8319 9.17601 38.2115 9.19515 44.5948C9.18667 48.4277 9.79549 52.237 10.9982 55.8763C11.7141 58.0239 12.6462 60.0987 13.4865 62.2061L13.7908 62.1123C13.7908 60.8797 13.7908 59.6489 13.7908 58.4163C13.8234 54.7796 16.0877 51.8606 19.6115 50.9285C20.9035 50.5859 22.205 50.2796 23.5028 49.9523L30.5255 48.1741C30.9083 46.6429 30.5695 45.5232 29.1856 44.8226C28.7839 44.6235 28.424 44.3493 28.1252 44.0149C27.8668 43.7144 27.6008 43.2952 27.5931 42.9239C27.5434 40.7227 27.5682 38.5215 27.5682 36.3204V32.1286H24.5057C24.5057 31.4204 24.4866 30.8174 24.5057 30.2145C24.6512 26.2964 26.4026 23.2626 29.9876 21.7065C34.2387 19.8613 38.6832 19.6182 43.1238 21.2663C43.4214 21.3682 43.7338 21.4199 44.0483 21.4194C47.1835 21.4768 48.9981 23.32 49.0019 26.4763C49.0019 31.0701 48.866 35.6638 49.0574 40.2576C49.1569 42.6368 48.7665 44.4589 46.4773 45.5614C46.2035 45.6935 46.0255 46.1969 45.9605 46.5568C45.8724 47.0429 45.9375 47.5616 45.9375 48.1569V48.1607ZM71.9821 47.4679C65.902 47.4643 60.0685 49.8716 55.7605 54.1621C51.4524 58.4525 49.0213 64.2761 49 70.3562C48.9674 83.0503 59.2708 93.4053 71.9477 93.4053C84.6245 93.4053 94.949 83.0694 94.9375 70.3868C94.9243 64.3061 92.5004 58.4787 88.1973 54.1824C83.8941 49.886 78.0629 47.4714 71.9821 47.4679ZM24.5 61.2797C24.5 65.5653 24.521 69.7437 24.4809 73.9125C24.4809 74.6782 24.7105 75.1299 25.3307 75.5395C29.4766 78.2894 33.6097 81.0545 37.73 83.835C38.2047 84.1566 38.509 84.0475 38.9148 83.7738C41.3744 82.1239 43.832 80.4605 46.3203 78.8585C46.9692 78.4431 47.0993 78.0794 46.8945 77.3272C44.9013 69.8343 45.9949 62.8161 50.1752 56.2725C50.8834 55.1605 51.7314 54.1364 52.5716 52.9938L45.8896 51.3151C45.2829 54.9059 43.21 57.1281 39.7646 58.0928V64.2331H36.727V58.0469C33.2626 57.0898 31.2719 54.8408 30.6518 51.3055C27.0266 52.2205 23.4683 53.0627 19.9445 54.0312C18.0841 54.5422 16.882 56.328 16.8476 58.3091C16.8246 59.9035 16.8476 61.4998 16.8476 63.0943C16.8476 67.6325 16.8476 67.6344 20.0019 70.9419C20.4192 71.3764 20.8709 71.7784 21.4853 72.366V61.2797H24.5ZM48.2937 81.253C48.0085 81.4252 47.7654 81.5592 47.5281 81.7142C44.6876 83.6015 41.8414 85.4792 39.0182 87.3914C38.5148 87.734 38.1645 87.8259 37.6018 87.445C33.2186 84.482 28.7492 81.6434 24.4177 78.6096C12.4778 70.249 6.35469 58.7359 6.1384 44.1565C6.03695 37.3004 6.12882 30.4423 6.10777 23.5842C6.10777 22.9621 6.26855 22.6272 6.85234 22.342C17.1155 17.2378 27.3749 12.1234 37.6305 6.99884C37.834 6.91054 38.0532 6.86387 38.2751 6.86157C38.497 6.85926 38.7171 6.90138 38.9225 6.98544C49.1869 12.0896 59.445 17.2072 69.6967 22.3381C70.271 22.6272 70.4509 22.9487 70.449 23.5746C70.4241 30.1456 70.4337 36.7166 70.4337 43.2895V44.3786H73.4196C73.4528 44.2771 73.4759 44.1726 73.4885 44.0666C73.4885 36.5079 73.5019 28.9455 73.4674 21.3888C73.4674 21.0902 73.1153 20.6652 72.8186 20.5159C61.5205 14.8388 50.2116 9.18406 38.8918 3.55161C38.701 3.47107 38.496 3.42957 38.2889 3.42957C38.0818 3.42957 37.8768 3.47107 37.686 3.55161C26.3675 9.17896 15.056 14.8197 3.75156 20.4738C3.21562 20.7418 3.04335 21.0481 3.04527 21.6452C3.06824 26.3979 3.04527 31.1505 3.06442 35.9031C3.08738 39.8882 2.92852 43.8924 3.25582 47.8545C4.36598 61.1343 10.2843 71.9104 20.959 79.8653C26.3777 83.8925 32.1562 87.4335 37.751 91.2214C38.2334 91.5487 38.532 91.3975 38.9282 91.1333C42.2918 88.8811 45.6593 86.6353 49.0306 84.3959C49.2584 84.2446 49.4651 84.059 49.6948 83.8771C49.2182 82.9871 48.7722 82.1507 48.2937 81.253ZM30.625 32.142C30.625 35.3959 30.6097 38.4813 30.648 41.5725C30.6976 41.9298 30.8852 42.2534 31.1705 42.4741C32.495 43.5217 33.8438 44.5361 35.2168 45.5174C35.5532 45.7354 35.9361 45.8711 36.3346 45.9136C39.3531 46.329 42.0462 45.7069 44.211 43.4043C44.5326 43.0617 45.0264 42.8741 45.3326 42.5219C45.6102 42.2004 45.9069 41.7563 45.9069 41.3582C45.9566 39.4805 46.3433 37.4554 45.7786 35.7614C45.214 34.0675 43.6444 32.7181 42.5573 31.1868C42.1744 30.6471 41.8242 30.5303 41.2059 30.804C39.0086 31.7609 36.6265 32.2185 34.2311 32.1439C33.0635 32.1247 31.8921 32.142 30.625 32.142ZM27.7233 28.9761C30.6556 28.9761 33.5152 29.0488 36.3672 28.9378C37.4782 28.8635 38.567 28.5919 39.5828 28.1358C40.6757 27.6707 41.7591 27.4257 42.9094 27.5769C43.3502 27.641 43.7578 27.8482 44.0694 28.1665C44.6876 28.8498 45.2025 29.6269 45.7595 30.3676C45.9196 28.9143 45.9727 27.4512 45.9183 25.9902C45.8915 25.1078 45.3614 24.5757 44.4732 24.5068C43.3403 24.444 42.2192 24.2428 41.1351 23.9077C37.7243 22.8032 34.2655 23.1669 30.9906 24.6733C29.178 25.5059 28.1137 26.9874 27.7233 28.9761ZM33.699 48.6163C33.699 49.2575 33.6588 50.0557 33.699 50.8481C33.7773 51.9239 34.2306 52.9382 34.9797 53.7143C35.7289 54.4903 36.7265 54.9791 37.7989 55.0954C39.9273 55.3327 42.1113 53.9584 42.63 51.8645C42.9037 50.7639 42.8463 49.581 42.9228 48.6239C39.8747 49.1976 36.7461 49.195 33.699 48.6163Z" fill="white"/>
<path d="M98 29.0928H79.6958V26.0303H98V29.0928Z" fill="white"/>
<path d="M91.8539 32.2032V35.1298H79.6958V32.2032H91.8539Z" fill="white"/>
<path d="M85.7001 41.2912H79.6919V38.3263H85.7001V41.2912Z" fill="white"/>
<path d="M86 64.7056L67.1413 83L56 72.192L62.8246 65.5416L67.0568 69.6558C71.1352 65.701 75.142 61.8157 79.077 58L86 64.7056ZM79.223 61.3319L67.1689 73.0504L62.8938 68.8914C61.6997 70.0448 60.5641 71.1415 59.4592 72.2114L67.1428 79.6368L82.6238 64.6237L79.223 61.3319Z" fill="white"/>
</g>
</svg>
