<svg width="25" height="26" viewBox="0 0 25 26" fill="none" xmlns="http://www.w3.org/2000/svg">
<path d="M4.99899 18.3973C5.05715 18.502 5.09307 18.5786 5.10846 18.6126C5.47192 19.3138 5.91748 20.0209 6.52724 20.4226L6.5871 20.46C7.27639 20.8846 8.5113 21.2522 9.78127 21.4556C9.86593 20.4804 10.4535 19.5963 11.0358 18.9453C10.2747 19.1735 9.48413 19.2899 8.68918 19.2908C7.40484 19.2923 6.13906 18.9858 4.99899 18.3973ZM14.72 14.6864C13.9957 14.4541 12.9104 13.3725 11.2625 13.7648C9.90271 14.0882 9.49477 15.031 9.27841 15.3739C8.77128 14.877 8.23336 14.54 7.78694 14.4634C7.44743 14.4064 7.22508 14.5094 7.09765 14.6047C6.86675 14.78 6.86076 14.7859 8.39926 17.971L8.52754 18.2356C8.52925 18.2407 8.53353 18.2441 8.5361 18.2493L8.67464 18.5335C8.67464 18.5335 8.76272 18.8313 9.27413 18.69C9.27413 18.69 12.8164 18.3531 14.1642 15.9143C14.3608 15.5099 14.5461 15.1001 14.72 14.6855V14.6864ZM0.711884 10.4291C0.723001 10.2249 0.709318 9.76964 0.41513 9.53563C0.178517 10.4008 0.0425056 11.2902 0.00976562 12.1863C0.288452 12.2147 0.552716 12.3236 0.770037 12.4995C0.704187 12.0782 0.56479 11.3652 0.712739 10.4291H0.711884ZM14.0513 21.1118C13.4732 20.4889 13.3748 19.324 13.7614 17.6332C13.7921 17.5004 13.8255 17.3685 13.8589 17.2383C13.309 17.8246 12.3922 18.3973 11.8286 18.9402C11.2052 19.541 10.4201 20.5025 10.3448 21.5347C11.0093 21.6147 11.6627 21.653 12.2323 21.6113C13.3269 21.5313 13.8537 21.1995 14.0513 21.1118ZM20.7261 6.43481C21.0009 6.77372 21.2309 7.14636 21.4103 7.54358C21.8054 8.2839 23.0941 10.39 24.7951 9.98663C24.6987 9.37958 24.5644 8.77908 24.3932 8.18859C24.3812 8.15285 24.3692 8.11711 24.3556 8.08052L24.3615 8.07882C24.1905 7.51039 23.9767 6.93856 23.7142 6.37269C22.7375 6.77944 21.589 6.64839 20.7261 6.43481ZM18.9533 2.0831C18.9962 2.12229 19.0261 2.17366 19.0388 2.23027C19.0515 2.28688 19.0464 2.346 19.0243 2.39965C18.6026 3.41227 17.6431 4.24619 16.8221 4.81121C17.5747 4.80015 18.5701 4.94736 19.7358 5.51069C20.1078 5.66726 22.0499 6.4297 23.4644 5.86468C23.4602 5.85702 23.4542 5.84766 23.4508 5.83915C23.4225 5.78469 23.3918 5.73108 23.3627 5.67747C22.3775 3.94405 20.9815 2.47645 19.2962 1.40235C18.0602 0.656146 16.6797 0.178256 15.2451 0C15.3826 0.702236 15.3064 1.42933 15.0262 2.08821C17.1967 1.14026 18.3529 1.5368 18.9533 2.0831ZM14.614 20.8565C15.5047 20.4506 16.3773 20.0063 17.2292 19.5248C17.1719 19.5018 17.1189 19.4772 17.0701 19.4508C16.0157 18.8772 15.4256 16.9031 15.1596 15.1782C15.1222 15.2759 15.0823 15.3727 15.0399 15.4684C14.7445 16.2162 14.503 16.984 14.3172 17.7659C13.8571 19.7767 14.2026 20.5604 14.614 20.8557V20.8565ZM21.4351 10.9142C20.1095 11.6468 18.8036 12.0153 17.5311 12.0153C16.8158 12.0151 16.1056 11.8972 15.429 11.6664C15.6642 12.6058 15.4923 13.5529 15.6308 14.409C15.695 14.4311 15.7608 14.4541 15.8275 14.4745C17.7817 15.1118 19.2996 15.2225 20.2173 14.7944C20.4683 14.6805 20.6889 14.5094 20.8612 14.2949C21.5026 13.4908 21.4641 11.8119 21.4342 10.9142H21.4351Z" fill="#2A2932"/>
<path d="M18.3628 18.8143L18.3645 18.8168C19.7269 18.017 20.5453 16.1696 20.8326 15.094C20.7172 15.174 20.5932 15.2455 20.4589 15.3084C19.9894 15.5271 19.4352 15.6173 18.8426 15.6173C17.8335 15.6173 16.7131 15.3569 15.7143 15.0361C15.9691 16.698 16.5267 18.5088 17.3443 18.9538C17.6496 19.1198 17.9831 19.0747 18.3628 18.8143ZM15.2824 11.0086C15.5149 11.102 15.7528 11.1815 15.9948 11.2469C17.7146 11.7047 19.5353 11.3788 21.4082 10.2768C21.3894 9.24718 21.1875 8.43113 20.8934 7.78442C20.8138 7.63295 20.7711 7.53765 20.7651 7.52573H20.7659C20.4435 6.90846 19.9751 6.37843 19.401 5.98128C18.1302 5.38732 17.0894 5.33456 16.4087 5.4103C18.3551 6.17189 18.6869 7.26875 18.7023 7.32151L18.716 7.36746C18.7303 7.41766 18.7265 7.47125 18.7052 7.51895C18.684 7.56665 18.6467 7.60547 18.5997 7.6287L18.557 7.64997C16.6858 8.59281 14.9155 8.06608 13.9483 7.61423C14.2331 8.28392 14.6111 9.17911 14.7582 9.52544L14.7616 9.52374C14.8223 9.66159 14.8813 9.8054 14.9395 9.95431L14.9429 9.96282C15.0686 10.2913 15.1849 10.6402 15.2815 11.0086H15.2824ZM21.6254 19.1972C21.1251 18.479 20.9609 17.4332 20.937 16.4717C20.7634 16.8793 20.5829 17.2426 20.4093 17.5549L20.4102 17.5558C20.3845 17.6153 20.3529 17.6732 20.317 17.7327C20.0262 18.3012 19.0872 20.2924 19.5233 21.5713C19.6499 21.944 19.8825 22.2181 20.2297 22.4044C20.5829 22.1449 21.61 21.3322 22.6106 19.9707C22.2082 19.8235 21.8632 19.553 21.6254 19.1981V19.1972ZM2.52626 16.4002C1.87973 15.5577 1.41279 14.8327 1.17761 14.0686C1.04847 13.6482 0.612322 12.8569 0 12.7599C0.00855199 14.0005 0.200972 15.1987 0.551603 16.3287C1.31872 16.1994 1.9738 16.2487 2.52626 16.4002Z" fill="#2A2932"/>
<path d="M18.9829 21.7518C18.6861 20.877 18.9059 19.7818 19.2052 18.896C19.0352 19.0292 18.861 19.1569 18.6827 19.2789L18.6844 19.2815L18.5921 19.3393C18.3728 19.4881 18.1498 19.6314 17.9233 19.7691L17.925 19.7716C17.7916 19.8542 14.7146 21.7909 16.183 24.5556C17.4654 24.161 18.6754 23.5631 19.7663 22.7848C19.3956 22.5381 19.1196 22.1741 18.9829 21.7518ZM24.8735 10.55C24.7016 10.5866 24.5297 10.6061 24.3587 10.6061C23.5137 10.6061 22.6774 10.156 21.906 9.27698C21.904 9.27419 21.9017 9.27162 21.8991 9.26932C21.9513 9.63692 21.9787 10.0233 21.9787 10.4249C21.9872 10.544 21.994 10.6632 21.9992 10.7814C22.059 11.4562 22.2951 12.9539 23.2093 13.7572C23.6548 14.1495 24.2184 14.3282 24.888 14.2924C24.894 14.266 24.9 14.2354 24.9051 14.2039C24.9684 13.6949 25.0001 13.1825 25.0001 12.6697C25.0009 12.0289 24.9676 11.3116 24.8735 10.55Z" fill="#2A2932"/>
<path d="M22.831 14.18C22.4154 13.8141 22.1212 13.3418 21.9134 12.8551C21.8561 13.3125 21.7751 13.7667 21.6705 14.2158C21.5961 14.6523 21.1565 17.5327 22.093 18.8755C22.317 19.198 22.5984 19.3963 22.9499 19.4831C23.3839 18.8315 23.7523 18.1388 24.0497 17.4153L24.0531 17.417C24.3917 16.6043 24.6474 15.7491 24.8065 14.8616C24.0326 14.8812 23.3698 14.6531 22.831 14.18ZM5.18483 19.8524C4.90791 19.4448 4.66288 19.0167 4.45192 18.5717C4.0953 17.9514 3.01519 16.5337 0.736084 16.8724C1.19538 18.1385 1.85791 19.3222 2.69791 20.3774C3.37779 19.6643 4.33562 19.6354 5.18483 19.8524ZM12.3933 22.1729C11.562 22.2418 10.5871 22.1712 9.64298 22.0121C8.95369 21.9397 7.03206 21.8691 5.68768 23.0927C7.26375 24.118 9.05346 24.7733 10.9215 25.0091C10.8984 24.176 11.2867 23.3157 12.0589 22.5022C12.1701 22.3831 12.283 22.2741 12.3924 22.1729H12.3933ZM6.25383 20.9212C5.93997 20.7339 4.08333 19.7001 3.08104 20.7961C3.35812 21.1356 4.07563 21.9423 5.21048 22.7626C5.94852 22.0452 6.83793 21.6921 7.65036 21.5313C7.15905 21.3923 6.68917 21.187 6.25383 20.9212ZM16.0262 20.8054C15.3249 21.156 13.4366 21.7917 12.3565 23.0187C11.8725 23.5684 11.4483 24.2722 11.4928 25.0499C11.8742 25.0916 12.7473 25.1537 13.8873 25.0295L14.0549 25.0108L14.1234 25.0023C14.6331 24.9367 15.1342 24.8406 15.6242 24.7146C14.828 23.1183 15.3258 21.7627 16.0262 20.8054ZM4.94281 14.42C4.97787 14.4472 5.03859 14.4863 5.23528 14.4863C5.47132 14.4863 5.90405 14.4293 6.72675 14.2217C7.43657 14.043 8.50556 13.7239 9.69857 13.2006C9.83112 13.1393 10.1689 12.9759 10.5589 12.7836C10.6889 12.9283 10.8018 13.0985 10.8753 13.2993C13.0988 12.816 13.9446 13.7758 14.8751 14.1349C15.0658 13.2312 15.035 12.0476 14.8032 11.4221C12.643 10.4623 11.267 8.59955 10.759 7.81073C10.251 8.20386 9.49332 8.72719 9.03322 9.65301C8.09763 11.5353 7.11073 13.2278 5.34731 13.7673C5.04543 13.8601 4.84873 13.9341 4.82308 14.1519C4.81834 14.2031 4.82686 14.2546 4.84782 14.3015C4.86878 14.3484 4.90149 14.3892 4.94281 14.42Z" fill="#2A2932"/>
<path d="M6.43617 10.4206C6.95185 10.0513 7.88145 9.39096 8.20643 9.12547C8.79823 8.64129 10.4342 7.35552 10.8464 7.03131C10.858 7.02219 10.8716 7.01577 10.886 7.01252C10.9004 7.00928 10.9154 7.00929 10.9299 7.01255C10.9443 7.01581 10.9578 7.02225 10.9694 7.03138C10.981 7.04052 10.9904 7.05212 10.9969 7.06535C12.2712 9.58838 14.5982 10.6895 14.5982 10.6895C14.4981 10.3815 14.3784 10.0683 14.239 9.75006L14.2416 9.74921L13.7541 8.6047L13.4462 7.88225C13.2718 7.47635 13.1366 7.15895 13.0973 7.07215L12.7262 6.22717C12.7142 6.19909 12.7467 6.17356 12.7723 6.19143L13.5249 6.73008C13.5463 6.74539 15.7168 8.25411 18.0446 7.26362C17.8086 6.8892 17.1125 6.10634 15.2516 5.63577L14.6161 5.47494C14.5708 5.46388 14.5648 5.40176 14.6076 5.38134L15.2002 5.10393C15.225 5.09287 17.5999 3.96622 18.4072 2.37412C17.3451 1.65082 15.491 2.44219 14.446 2.99871L13.2547 3.63521C13.2264 3.64967 13.1982 3.61479 13.2187 3.59011L14.0945 2.56643C14.1321 2.52218 14.983 1.49254 14.676 0.0587085C14.0953 -0.0306402 12.1275 -0.166791 10.3872 1.64316L10.04 2.00481C10.0329 2.01197 10.024 2.017 10.0142 2.01928C10.0044 2.02157 9.9941 2.02103 9.98459 2.01773C9.97508 2.01443 9.96671 2.0085 9.96047 2.00063C9.95422 1.99277 9.95036 1.98329 9.94932 1.97332L9.80394 0.541191C8.93506 0.91135 6.63885 2.19031 6.29933 5.46813C6.17875 6.63392 5.9889 7.63633 5.72977 8.48812L5.72806 8.48642L5.69385 8.6064C5.6032 8.88976 5.50485 9.15525 5.39881 9.40458C5.31595 9.5839 5.21932 9.75658 5.10975 9.9211C4.91904 10.2053 5.00456 10.3951 5.0841 10.4734C5.23803 10.6299 5.99916 10.7337 6.43617 10.4206ZM9.01374 5.05458C9.39943 4.8078 9.80907 5.21625 9.56192 5.60088C9.54567 5.62641 9.52343 5.64853 9.49778 5.6647C9.11123 5.91147 8.70159 5.50302 8.94874 5.11925C8.96584 5.09372 8.98808 5.07159 9.01374 5.05458ZM6.97922 5.05458C7.36577 4.8078 7.77455 5.21625 7.5274 5.60088C7.51115 5.62641 7.48892 5.64853 7.46326 5.6647C7.07671 5.91147 6.66707 5.50302 6.91508 5.11925C6.93218 5.09372 6.95356 5.07159 6.97922 5.05458Z" fill="#2A2932"/>
</svg>
