<svg width="194" height="64" viewBox="0 0 194 64" fill="none" xmlns="http://www.w3.org/2000/svg">
<path d="M117.766 57.2861C117.344 57.6201 116.702 57.9277 115.841 58.209C114.997 58.4727 114.109 58.6396 113.178 58.71C110.119 58.9033 107.693 58.0156 105.9 56.0469C104.125 54.0605 103.237 51.5293 103.237 48.4531C103.237 45.623 103.94 43.3027 105.347 41.4922C106.771 39.6641 108.889 38.75 111.701 38.75C113.512 38.75 115.023 39.2334 116.236 40.2002C117.467 41.167 118.082 42.3096 118.082 43.6279H114.522C114.487 42.8018 114.197 42.1777 113.652 41.7559C113.107 41.3164 112.413 41.0967 111.569 41.0967C110.321 41.0967 109.196 41.7295 108.194 42.9951C107.21 44.2432 106.718 45.9131 106.718 48.0049C106.718 51.1514 107.438 53.3574 108.88 54.623C110.339 55.8711 111.859 56.4336 113.441 56.3105C114.004 56.2578 114.496 56.1611 114.918 56.0205C115.357 55.8799 115.753 55.7305 116.104 55.5723C116.562 55.2734 116.992 55.168 117.396 55.2559C117.801 55.3438 118.073 55.5459 118.214 55.8623C118.319 56.1084 118.319 56.3721 118.214 56.6533C118.126 56.917 117.977 57.1279 117.766 57.2861ZM126.994 57.6025C126.766 57.7783 126.361 58.0068 125.781 58.2881C125.201 58.5693 124.384 58.71 123.329 58.71C122.081 58.71 121.053 58.3496 120.244 57.6289C119.436 56.8906 119.031 55.9502 119.031 54.8076C119.031 53.2607 119.717 52.0215 121.088 51.0898C122.477 50.1582 124.155 49.6924 126.124 49.6924H126.968V49.1387C126.968 48.3301 126.739 47.6973 126.282 47.2402C125.825 46.7656 125.28 46.5283 124.647 46.5283C124.085 46.5283 123.602 46.6777 123.197 46.9766C122.811 47.2754 122.617 47.8555 122.617 48.7168H119.189C119.189 47.3281 119.69 46.2559 120.692 45.5C121.694 44.7441 123.039 44.3662 124.727 44.3662C126.52 44.3662 127.882 44.8145 128.813 45.7109C129.763 46.5898 130.237 47.7764 130.237 49.2705V58.5254H126.994V57.6025ZM126.968 51.9336C125.544 51.8984 124.41 52.1182 123.566 52.5928C122.723 53.0674 122.301 53.7178 122.301 54.5439C122.301 55.2471 122.468 55.7305 122.802 55.9941C123.136 56.2402 123.514 56.3633 123.936 56.3633C124.674 56.3633 125.359 56.0908 125.992 55.5459C126.643 55.001 126.968 54.3418 126.968 53.5684V51.9336ZM135.643 58.5254H132.399V47.9521C132.399 47.4072 132.355 47.0381 132.268 46.8447C132.18 46.6514 132.083 46.5283 131.978 46.4756C131.644 46.4053 131.406 46.3086 131.266 46.1855C131.125 46.0625 131.055 45.8516 131.055 45.5527C131.055 44.9902 131.424 44.709 132.162 44.709H134.509C135.265 44.709 135.643 45.0254 135.643 45.6582V45.8691C135.713 45.7988 135.783 45.7197 135.854 45.6318C136.539 44.9111 137.471 44.5332 138.648 44.498C139.949 44.498 140.916 44.9375 141.549 45.8164C141.707 46.0273 141.848 46.2734 141.971 46.5547C142.129 46.2734 142.322 46.0098 142.551 45.7637C143.324 44.9199 144.291 44.498 145.451 44.498C146.787 44.498 147.763 44.9463 148.378 45.8428C149.011 46.7217 149.327 48.1191 149.327 50.0352V58.5254H146.084V50.1143C146.084 48.9014 145.97 48.0664 145.741 47.6094C145.53 47.1523 145.231 46.9238 144.845 46.9238C144.335 46.9238 143.737 47.4072 143.052 48.374C142.806 48.6904 142.621 49.0508 142.498 49.4551V58.5254H139.255V50.1143C139.255 48.8838 139.141 48.0488 138.912 47.6094C138.701 47.1523 138.42 46.9238 138.068 46.9238C137.559 46.9414 136.943 47.4248 136.223 48.374C135.977 48.6729 135.783 49.0244 135.643 49.4287V58.5254ZM154.1 52.2236C154.17 53.2783 154.557 54.2451 155.26 55.124C155.963 55.9854 156.877 56.46 158.002 56.5479C158.389 56.583 158.802 56.5742 159.241 56.5215C159.681 56.4512 160.111 56.3105 160.533 56.0996C161.061 55.8535 161.456 55.7832 161.72 55.8887C162.001 55.9766 162.212 56.1611 162.353 56.4424C162.423 56.6709 162.414 56.917 162.326 57.1807C162.256 57.4268 162.098 57.6289 161.852 57.7871C161.377 58.0684 160.735 58.3057 159.927 58.499C159.136 58.6924 158.248 58.7627 157.264 58.71C155.418 58.5869 153.862 57.8662 152.597 56.5479C151.331 55.2295 150.698 53.4102 150.698 51.0898C150.698 49.0156 151.27 47.3809 152.412 46.1855C153.555 44.9727 155.11 44.3662 157.079 44.3662C158.767 44.3662 160.138 44.9199 161.192 46.0273C162.247 47.1348 162.774 48.8223 162.774 51.0898V52.2236H154.1ZM154.1 50.0088H159.479C159.479 48.8311 159.215 47.9609 158.688 47.3984C158.178 46.8184 157.615 46.5283 157 46.5283C156.297 46.5283 155.646 46.8535 155.049 47.5039C154.469 48.1543 154.152 48.9893 154.1 50.0088ZM167.916 58.5254H164.62V41.7295C164.62 41.1846 164.576 40.8242 164.488 40.6484C164.418 40.4551 164.312 40.332 164.172 40.2793C163.891 40.1738 163.662 40.0684 163.486 39.9629C163.328 39.8398 163.249 39.6201 163.249 39.3037C163.249 38.7588 163.627 38.4863 164.383 38.4863H166.782C167.538 38.4863 167.916 38.7764 167.916 39.3564V58.5254ZM169.445 51.5645C169.445 49.4551 169.99 47.7324 171.08 46.3965C172.188 45.043 173.787 44.3662 175.879 44.3662C177.988 44.3662 179.597 45.043 180.704 46.3965C181.812 47.7324 182.365 49.4551 182.365 51.5645C182.365 53.6562 181.812 55.3701 180.704 56.7061C179.597 58.042 177.988 58.71 175.879 58.71C173.787 58.71 172.188 58.042 171.08 56.7061C169.99 55.3701 169.445 53.6562 169.445 51.5645ZM172.899 51.5645C172.899 53.2871 173.207 54.5527 173.822 55.3613C174.438 56.1523 175.123 56.5479 175.879 56.5479C176.652 56.5479 177.347 56.1523 177.962 55.3613C178.595 54.5527 178.911 53.2871 178.911 51.5645C178.911 49.8242 178.595 48.5498 177.962 47.7412C177.347 46.9326 176.652 46.5283 175.879 46.5283C175.123 46.5283 174.438 46.9326 173.822 47.7412C173.207 48.5498 172.899 49.8242 172.899 51.5645ZM187.639 39.3564V44.709H191.198V46.8447H187.665V55.0186C187.665 55.6514 187.771 56.0645 187.981 56.2578C188.21 56.4512 188.553 56.5479 189.01 56.5479C189.256 56.5479 189.493 56.5479 189.722 56.5479C189.968 56.5303 190.539 56.4072 191.436 56.1787V58.3936C190.838 58.5869 190.258 58.7012 189.695 58.7363C189.15 58.7715 188.729 58.7891 188.43 58.7891C187.533 58.7891 186.795 58.6924 186.215 58.499C185.635 58.2881 185.222 57.9893 184.976 57.6025C184.694 57.251 184.527 56.8115 184.475 56.2842C184.439 55.7393 184.422 55.1768 184.422 54.5967V46.8447H182.523V44.709H184.422V42.6787L187.639 39.3564Z" fill="#FF6B00"/>
<path d="M79.4292 4.18308C77.8304 2.98371 75.6368 2.38021 72.9019 2.38021H64.9327V29.2004H68.2298V17.024H72.9019C75.6368 17.024 77.8323 16.4109 79.4311 15.2059C81.0568 13.9779 81.8772 12.1218 81.8772 9.68495C81.8772 7.24813 81.0529 5.39768 79.4292 4.18308ZM78.0427 11.366C77.8302 11.8818 77.4901 12.3356 77.0539 12.6853C76.5949 13.066 75.9581 13.3763 75.174 13.6067C74.3746 13.8447 73.3858 13.9646 72.2326 13.9646H68.2298V5.43956H72.2326C73.3896 5.43956 74.3784 5.55379 75.1797 5.78033C75.9638 6.00117 76.5949 6.30958 77.052 6.69795C77.4886 7.05699 77.8289 7.51812 78.0427 8.0401C78.2519 8.56337 78.3584 9.12175 78.3563 9.68495C78.3563 10.2827 78.2511 10.8501 78.0427 11.366ZM98.2155 27.0701C98.1543 26.3581 98.1218 25.6632 98.1218 25.0064V17.2714C98.1218 16.173 97.9401 15.2078 97.5748 14.4063C97.2383 13.6415 96.743 12.9564 96.1213 12.3959C95.5208 11.8629 94.8017 11.4612 93.9832 11.2022C93.1655 10.9445 92.3126 10.8141 91.4549 10.8158C88.1119 10.8158 85.5587 11.6953 83.87 13.4239L83.673 13.6257L85.5511 15.8227L85.7863 15.6095C87.1771 14.3332 89.005 13.6338 90.8964 13.6543C93.6925 13.6543 95.0484 15.0174 95.0484 17.8235V17.9587H94.1304C93.0939 17.9587 91.9292 18.0082 90.6688 18.1072C89.4354 18.1994 88.2199 18.4549 87.0543 18.8668C85.9544 19.2463 84.9661 19.8912 84.1779 20.7439C83.3976 21.6006 83.0017 22.7866 83.0017 24.264C83.0017 25.1492 83.1815 25.9393 83.5411 26.6113C83.8888 27.2694 84.3739 27.8458 84.9639 28.3018C85.5658 28.7632 86.2497 29.1074 86.9797 29.3165C87.733 29.5335 88.5134 29.6431 89.2976 29.6421C90.7549 29.6421 92.0095 29.3756 93.0269 28.8501C93.8436 28.4313 94.5779 27.7897 95.2167 26.9406C95.2263 27.1405 95.2378 27.3404 95.255 27.546C95.2913 28.0486 95.3506 28.5208 95.4233 28.9453L95.4711 29.2004H98.4737L98.4163 28.8444C98.3436 28.378 98.2786 27.7783 98.2155 27.0701ZM90.0817 26.8074C89.6119 26.8077 89.1436 26.7553 88.6856 26.6513C88.2508 26.5535 87.837 26.3794 87.4635 26.1373C87.1137 25.9105 86.8228 25.6045 86.6144 25.2444C86.3956 24.8437 86.2874 24.3924 86.3008 23.9365C86.3008 23.1617 86.5628 22.5772 87.0983 22.1375C87.7118 21.6541 88.4198 21.3033 89.1771 21.1075C90.0317 20.8755 90.9076 20.7295 91.7915 20.6716C92.719 20.6106 93.4936 20.5802 94.0941 20.5802H95.0503V21.5302C95.0503 22.2612 94.9471 22.958 94.7482 23.6014C94.5616 24.2153 94.2468 24.783 93.8244 25.2672C93.3943 25.7481 92.8662 26.1323 92.2753 26.3943C91.6633 26.6684 90.9251 26.8093 90.0817 26.8093V26.8074ZM110.379 10.8196C109.786 10.8196 109.174 10.9034 108.568 11.0728C107.965 11.2384 107.386 11.4726 106.846 11.7658C106.312 12.0574 105.817 12.4157 105.374 12.8319C105.159 13.0326 104.957 13.2476 104.771 13.4753C104.768 13.2983 104.766 13.127 104.758 12.9537C104.746 12.4817 104.714 12.0105 104.662 11.5411L104.634 11.2632H101.493L101.518 11.5963C101.566 12.2417 101.61 12.9232 101.648 13.6257C101.687 14.332 101.704 14.9241 101.704 15.3867V29.2042H104.777V20.0129C104.777 18.4937 105.016 17.3 105.481 16.4642C105.951 15.6209 106.491 14.9831 107.08 14.5662C107.673 14.1512 108.235 13.8942 108.759 13.8047C109.486 13.679 109.688 13.66 109.748 13.66C111.436 13.66 112.601 14.1283 113.205 15.0574C113.837 16.0264 114.162 17.4561 114.162 19.3104V29.2042H117.233V17.9035C117.233 15.6647 116.671 13.9056 115.554 12.6815C114.433 11.444 112.691 10.8196 110.379 10.8196ZM135.656 13.6714C135.302 13.265 134.909 12.8945 134.482 12.5653C133.929 12.1414 133.327 11.7859 132.688 11.5069C132.105 11.2588 131.495 11.078 130.871 10.9681C130.308 10.8699 129.737 10.8189 129.165 10.8158C127.905 10.8026 126.656 11.0442 125.493 11.5259C124.404 11.9817 123.42 12.6542 122.601 13.502C120.911 15.2762 119.981 17.6361 120.008 20.0814C120.008 21.376 120.253 22.6001 120.741 23.7176C121.206 24.8073 121.888 25.7922 122.745 26.6132C123.609 27.4274 124.621 28.0703 125.726 28.5074C126.892 28.9696 128.136 29.2029 129.391 29.1947C130.691 29.1947 131.948 28.9358 133.122 28.4313C134.116 27.9924 134.989 27.3194 135.664 26.4704V28.7397C135.664 29.6421 135.549 30.5064 135.321 31.3022C135.113 32.0562 134.741 32.7554 134.231 33.3506C133.688 33.9583 133.008 34.4304 132.248 34.7289C131.422 35.0678 130.399 35.2411 129.207 35.2411C127.849 35.2411 126.6 34.9593 125.497 34.4034C124.435 33.8833 123.51 33.1231 122.797 32.1836L122.577 31.8885L120.303 34.2911L120.502 34.5043C121.641 35.7113 122.928 36.6232 124.327 37.2057C125.719 37.7845 127.325 38.0815 129.094 38.0815C131.089 38.0815 132.738 37.7731 133.99 37.1619C135.241 36.5527 136.235 35.7741 136.943 34.8508C137.651 33.9332 138.129 32.9089 138.374 31.8086C138.604 30.8027 138.724 29.7751 138.733 28.7435V11.2594H135.66V13.6714H135.656ZM129.46 26.3638C128.591 26.3638 127.777 26.1925 127.042 25.8555C126.311 25.5223 125.649 25.0554 125.091 24.4791C123.931 23.2796 123.288 21.6761 123.3 20.011C123.289 18.3459 123.931 16.7424 125.09 15.5409C125.647 14.9637 126.31 14.4972 127.042 14.1664C127.802 13.8245 128.626 13.6504 129.46 13.6562C130.425 13.6562 131.309 13.8294 132.087 14.1702C132.833 14.4897 133.506 14.9559 134.067 15.5409C134.61 16.12 135.031 16.8017 135.304 17.5456C135.592 18.339 135.736 19.1769 135.731 20.0205C135.755 20.9857 135.608 21.8633 135.289 22.6343C134.986 23.3855 134.522 24.0623 133.931 24.6181C132.721 25.7497 131.12 26.3747 129.46 26.3638ZM157.636 13.5001C156.772 12.6474 155.744 11.9761 154.614 11.5259C153.388 11.045 152.079 10.8052 150.761 10.8196C149.455 10.8066 148.158 11.0458 146.943 11.524C145.813 11.9747 144.786 12.6467 143.922 13.5001C143.08 14.3377 142.411 15.3448 141.938 16.489C141.457 17.6782 141.215 18.9498 141.225 20.2318C141.225 21.5739 141.464 22.8361 141.938 23.9765C142.393 25.0946 143.067 26.1109 143.922 26.9654C144.785 27.8191 145.813 28.4906 146.943 28.9396C148.158 29.4177 149.455 29.6569 150.761 29.644C152.157 29.644 153.453 29.4079 154.614 28.9396C155.745 28.4906 156.773 27.8191 157.636 26.9654C158.478 26.1277 159.147 25.1207 159.619 23.9765C160.101 22.7866 160.343 21.5144 160.333 20.2318C160.333 18.8915 160.094 17.6332 159.619 16.489C159.164 15.3717 158.49 14.3557 157.636 13.5001ZM150.761 26.8074C149.793 26.8074 148.917 26.636 148.154 26.2991C147.416 25.9783 146.755 25.5053 146.215 24.9112C145.671 24.3023 145.25 23.5944 144.975 22.8266C144.675 21.9946 144.524 21.1161 144.53 20.2318C144.53 19.3104 144.677 18.4365 144.975 17.6351C145.253 16.8685 145.673 16.1611 146.215 15.5504C146.756 14.9578 147.417 14.485 148.154 14.1626C148.977 13.8121 149.866 13.6389 150.761 13.6543C151.727 13.6543 152.604 13.8256 153.366 14.1626C154.107 14.4879 154.775 14.9601 155.328 15.5504C155.881 16.1553 156.309 16.8631 156.586 17.6332C156.887 18.466 157.038 19.345 157.032 20.2299C157.032 21.1513 156.883 22.0251 156.586 22.8228C156.309 23.5929 155.881 24.3007 155.328 24.9055C154.777 25.4977 154.109 25.9702 153.366 26.2934C152.544 26.6476 151.656 26.8228 150.761 26.8074ZM166.319 0.604004H163.243V29.2023H166.319V0.604004ZM173.651 3.40253C173.265 3.03384 172.752 2.8261 172.217 2.82189C171.693 2.82189 171.209 3.01607 170.782 3.40063C170.568 3.58803 170.398 3.82006 170.283 4.08028C170.169 4.3405 170.113 4.62257 170.121 4.90651C170.121 5.51571 170.344 6.02021 170.781 6.41048C171.167 6.77917 171.68 6.98691 172.215 6.99113C172.741 6.99113 173.223 6.79694 173.649 6.41238C173.863 6.22469 174.033 5.99288 174.147 5.73313C174.261 5.47337 174.317 5.19192 174.311 4.90841C174.311 4.30301 174.087 3.79661 173.651 3.40063V3.40253ZM173.754 11.2651H170.681V29.2023H173.754V11.2632V11.2651ZM186.235 10.8196C185.64 10.8196 185.03 10.9034 184.422 11.0728C183.822 11.2384 183.242 11.4726 182.703 11.7658C182.168 12.0574 181.672 12.4156 181.228 12.8319C181.014 13.0327 180.813 13.2477 180.628 13.4753L180.614 12.9537C180.602 12.4817 180.57 12.0105 180.519 11.5411L180.49 11.2632H177.348L177.373 11.5963C177.423 12.2417 177.467 12.9232 177.503 13.6257C177.541 14.332 177.56 14.9241 177.56 15.3867V29.2042H180.634V20.0129C180.634 18.4937 180.873 17.3 181.337 16.4642C181.808 15.6209 182.347 14.9831 182.936 14.5662C183.527 14.1512 184.091 13.8942 184.615 13.8047C185.34 13.679 185.545 13.66 185.604 13.66C187.293 13.66 188.458 14.1283 189.062 15.0574C189.693 16.0264 190.016 17.4561 190.016 19.3104V29.2042H193.09V17.9035C193.09 15.6647 192.525 13.9056 191.41 12.6815C190.288 11.444 188.547 10.8196 186.235 10.8196ZM11.1791 43.0348C11.3092 43.269 11.3895 43.4403 11.4239 43.5165C12.2367 45.0852 13.2331 46.6672 14.5967 47.5658L14.7306 47.6495C16.272 48.5995 19.0336 49.4219 21.8737 49.8769C22.063 47.6952 23.3769 45.7172 24.6793 44.2609C22.9771 44.7714 21.2092 45.0317 19.4314 45.0338C16.5593 45.0371 13.7286 44.3514 11.1791 43.0348ZM32.9182 34.7325C31.2983 34.2128 28.8714 31.7931 25.1861 32.6707C22.1452 33.3942 21.233 35.5035 20.7491 36.2708C19.615 35.159 18.4121 34.4051 17.4138 34.2337C16.6545 34.1062 16.1573 34.3365 15.8723 34.5498C15.356 34.9419 15.3426 34.9553 18.7831 42.081L19.07 42.6731C19.0738 42.6845 19.0834 42.6922 19.0891 42.7036L19.3989 43.3394C19.3989 43.3394 19.5959 44.0057 20.7396 43.6897C20.7396 43.6897 28.661 42.9358 31.6751 37.4797C32.1148 36.5749 32.5293 35.6582 32.9182 34.7306V34.7325ZM1.59187 25.208C1.61673 24.7511 1.58613 23.7326 0.928242 23.209C0.399107 25.1447 0.0949448 27.1345 0.0217285 29.1393C0.644953 29.2028 1.23592 29.4463 1.72192 29.8399C1.57466 28.8975 1.26292 27.3021 1.59378 25.208H1.59187ZM31.4227 49.1078C30.1298 47.7143 29.9099 45.108 30.7743 41.3252C30.8432 41.0283 30.9178 40.7332 30.9924 40.4419C29.7626 41.7536 27.7125 43.0348 26.4521 44.2494C25.0579 45.5935 23.3023 47.7447 23.134 50.054C24.62 50.233 26.0811 50.3186 27.3548 50.2253C29.8028 50.0464 30.9809 49.3039 31.4227 49.1078ZM46.3495 16.2717C46.9641 17.03 47.4783 17.8637 47.8795 18.7523C48.7631 20.4086 51.6452 25.1204 55.4491 24.218C55.2334 22.8599 54.9332 21.5165 54.5502 20.1954C54.5235 20.1154 54.4967 20.0355 54.4661 19.9536L54.4795 19.9498C54.097 18.6781 53.6189 17.3988 53.0317 16.1328C50.8477 17.0428 48.2792 16.7496 46.3495 16.2717ZM42.385 6.5359C42.4811 6.62359 42.5478 6.73851 42.5762 6.86516C42.6046 6.99181 42.5932 7.12407 42.5437 7.2441C41.6009 9.50958 39.4551 11.3753 37.6191 12.6394C39.3021 12.6146 41.5282 12.944 44.1349 14.2043C44.9668 14.5545 49.31 16.2603 52.4733 14.9962C52.4637 14.9791 52.4503 14.9581 52.4427 14.9391C52.3796 14.8173 52.3107 14.6973 52.2457 14.5774C50.0425 10.6993 46.9207 7.41591 43.1519 5.01289C40.3878 3.34345 37.3006 2.27429 34.0925 1.87549C34.4 3.44657 34.2295 5.07326 33.6029 6.54732C38.4567 4.42653 41.0424 5.31369 42.385 6.5359ZM32.6811 48.5367C34.673 47.6285 36.6243 46.6345 38.5294 45.5573C38.4013 45.5059 38.2827 45.4507 38.1737 45.3917C35.8156 44.1086 34.496 39.6918 33.9012 35.8329C33.8175 36.0515 33.7283 36.268 33.6335 36.4821C32.9729 38.1551 32.4328 39.8728 32.0174 41.6222C30.9885 46.1208 31.7612 47.8742 32.6811 48.5348V48.5367ZM47.935 26.2931C44.9706 27.9323 42.0503 28.7566 39.2045 28.7566C37.605 28.7563 36.0166 28.4926 34.5037 27.9761C35.0296 30.0778 34.6452 32.1967 34.955 34.1119C35.0984 34.1614 35.2457 34.2128 35.3949 34.2585C39.7649 35.6844 43.1595 35.9319 45.2116 34.9743C45.7731 34.7194 46.2664 34.3366 46.6517 33.8568C48.0861 32.0577 48 28.3016 47.9331 26.2931H47.935Z" fill="#FF6B00"/>
<path d="M41.0647 43.9676L41.0685 43.9733C44.1151 42.1838 45.9453 38.0507 46.5879 35.6444C46.3297 35.8233 46.0524 35.9832 45.7521 36.1241C44.7022 36.6134 43.4629 36.8152 42.1376 36.8152C39.8808 36.8152 37.3755 36.2326 35.1417 35.5149C35.7117 39.233 36.9586 43.2842 38.7869 44.2798C39.4697 44.6511 40.2155 44.5502 41.0647 43.9676ZM34.1759 26.5044C34.6959 26.7132 35.2279 26.8912 35.769 27.0375C39.615 28.0617 43.6867 27.3326 47.875 24.8672C47.8329 22.5636 47.3816 20.7379 46.7237 19.2911C46.5458 18.9522 46.4502 18.739 46.4368 18.7123H46.4387C45.7176 17.3313 44.6701 16.1455 43.3864 15.257C40.5445 13.9282 38.217 13.8101 36.6947 13.9796C41.0475 15.6834 41.7895 18.1374 41.8239 18.2554L41.8545 18.3582C41.8864 18.4705 41.8779 18.5904 41.8304 18.6971C41.7829 18.8039 41.6994 18.8907 41.5944 18.9427L41.4988 18.9903C37.3143 21.0996 33.3555 19.9212 31.1925 18.9103C31.8293 20.4086 32.6746 22.4113 33.0036 23.1862L33.0112 23.1824C33.147 23.4908 33.279 23.8125 33.409 24.1457L33.4167 24.1647C33.6978 24.8995 33.9579 25.6801 34.174 26.5044H34.1759ZM48.3608 44.8243C47.242 43.2175 46.8748 40.8778 46.8212 38.7266C46.433 39.6385 46.0295 40.4514 45.6412 41.1501L45.6431 41.152C45.5858 41.2852 45.515 41.4147 45.4347 41.5479C44.7844 42.8197 42.6845 47.2745 43.6599 50.1358C43.9429 50.9697 44.4631 51.5827 45.2396 51.9996C46.0295 51.4189 48.3263 49.6009 50.5639 46.5548C49.6641 46.2255 48.8926 45.6202 48.3608 44.8262V44.8243ZM5.64945 38.5667C4.20362 36.6819 3.15941 35.0599 2.63348 33.3503C2.34469 32.4099 1.36933 30.6394 0 30.4224C0.0191248 33.198 0.449432 35.8785 1.23355 38.4067C2.94904 38.1174 4.41399 38.2278 5.64945 38.5667Z" fill="#FF6B00"/>
<path d="M42.4512 50.5395C41.7876 48.5824 42.2791 46.1322 42.9485 44.1504C42.5682 44.4483 42.1785 44.734 41.7799 45.0071L41.7838 45.0128L41.5772 45.1423C41.0868 45.4751 40.5882 45.7957 40.0817 46.1037L40.0855 46.1094C39.7871 46.2941 32.906 50.627 36.1898 56.8124C39.0576 55.9296 41.7635 54.5918 44.203 52.8506C43.3742 52.2987 42.7569 51.4843 42.4512 50.5395ZM55.6243 25.4783C55.2399 25.5602 54.8555 25.604 54.473 25.604C52.5835 25.604 50.7131 24.5969 48.988 22.6303C48.9836 22.6241 48.9785 22.6183 48.9728 22.6132C49.0894 23.4356 49.1506 24.2999 49.1506 25.1985C49.1697 25.465 49.185 25.7315 49.1965 25.9961C49.3304 27.5058 49.8582 30.8565 51.9027 32.6536C52.8991 33.5312 54.1594 33.931 55.6568 33.8511C55.6702 33.7921 55.6836 33.7235 55.6951 33.6531C55.8366 32.5143 55.9075 31.368 55.9074 30.2206C55.9093 28.7871 55.8347 27.1822 55.6243 25.4783Z" fill="#FF6B00"/>
<path d="M51.0573 33.5998C50.1279 32.7812 49.47 31.7246 49.0052 30.6356C48.8772 31.659 48.6959 32.6751 48.4621 33.6797C48.2957 34.6564 47.3127 41.1006 49.4069 44.1047C49.9079 44.8263 50.5371 45.2698 51.3232 45.464C52.2937 44.0062 53.1175 42.4567 53.7826 40.8379L53.7903 40.8417C54.5476 39.0236 55.1194 37.1103 55.4751 35.1247C53.7444 35.1685 52.2622 34.6583 51.0573 33.5998ZM11.5953 46.2903C10.976 45.3784 10.4281 44.4205 9.95631 43.4251C9.15881 42.0373 6.74335 38.8656 1.64661 39.6233C2.67372 42.456 4.15535 45.1042 6.03382 47.4649C7.55424 45.8695 9.69622 45.8048 11.5953 46.2903ZM27.7156 51.4818C25.8566 51.636 23.6764 51.478 21.565 51.122C20.0236 50.9602 15.7263 50.8022 12.7198 53.5398C16.2444 55.8335 20.2467 57.2996 24.4242 57.8271C24.3726 55.9633 25.2408 54.0386 26.9678 52.2186C27.2164 51.952 27.4688 51.7084 27.7136 51.4818H27.7156ZM13.9859 48.6814C13.284 48.2626 9.13203 45.9495 6.89061 48.4015C7.51026 49.1611 9.11482 50.9659 11.6527 52.8011C13.3031 51.1963 15.2921 50.4062 17.109 50.0464C16.0102 49.7354 14.9595 49.2761 13.9859 48.6814ZM35.8398 48.4225C34.2715 49.2068 30.0488 50.6289 27.6333 53.3742C26.5509 54.604 25.6023 56.1784 25.7017 57.9184C26.5547 58.0117 28.5073 58.1507 31.0567 57.8727L31.4315 57.8309L31.5845 57.8118C32.7243 57.6652 33.845 57.4501 34.9409 57.1684C33.1604 53.5969 34.2734 50.5642 35.8398 48.4225ZM11.0541 34.1366C11.1325 34.1976 11.2683 34.2851 11.7081 34.2851C12.236 34.2851 13.2037 34.1576 15.0435 33.6931C16.6309 33.2933 19.0214 32.5794 21.6893 31.4086C21.9858 31.2715 22.7412 30.906 23.6133 30.4757C23.904 30.7994 24.1564 31.1801 24.3209 31.6294C29.2934 30.5481 31.1848 32.6955 33.2656 33.4989C33.692 31.4771 33.6232 28.829 33.1049 27.4297C28.274 25.2822 25.1968 21.1149 24.0608 19.3501C22.9248 20.2297 21.2304 21.4005 20.2014 23.4718C18.1092 27.6829 15.9022 31.4695 11.9587 32.6765C11.2836 32.884 10.8437 33.0496 10.7863 33.537C10.7757 33.6514 10.7948 33.7666 10.8417 33.8715C10.8885 33.9765 10.9617 34.0678 11.0541 34.1366Z" fill="#FF6B00"/>
<path d="M14.3933 25.1889C15.5465 24.3627 17.6254 22.8853 18.3521 22.2914C19.6756 21.2081 23.3341 18.3315 24.256 17.6062C24.2819 17.5858 24.3122 17.5715 24.3445 17.5642C24.3767 17.5569 24.4103 17.5569 24.4425 17.5642C24.4748 17.5716 24.505 17.5859 24.531 17.6064C24.5569 17.6268 24.578 17.6528 24.5925 17.6824C27.4421 23.327 32.646 25.7905 32.646 25.7905C32.4222 25.1013 32.1545 24.4007 31.8427 23.6887L31.8485 23.6868L30.7584 21.1263L30.0699 19.51C29.6797 18.6019 29.3776 17.8918 29.2896 17.6976L28.4596 15.8072C28.4328 15.7443 28.5055 15.6872 28.5628 15.7272L30.2458 16.9323C30.2936 16.9666 35.1475 20.3419 40.3533 18.1259C39.8254 17.2883 38.2687 15.5368 34.1071 14.484L32.6861 14.1242C32.5848 14.0995 32.5714 13.9605 32.667 13.9148L33.9924 13.2942C34.0478 13.2694 39.3588 10.7489 41.1641 7.18693C38.7889 5.56873 34.6426 7.33923 32.3056 8.58429L29.6415 10.0083C29.5784 10.0407 29.5153 9.96261 29.5612 9.9074L31.5195 7.61718C31.6037 7.51818 33.5066 5.21463 32.82 2.00679C31.5214 1.80689 27.1208 1.50229 23.229 5.55159L22.4525 6.36069C22.4367 6.37673 22.4167 6.38796 22.3948 6.39308C22.3729 6.3982 22.3499 6.397 22.3286 6.3896C22.3074 6.38221 22.2887 6.36894 22.2747 6.35135C22.2607 6.33375 22.2521 6.31256 22.2498 6.29025L21.9246 3.08622C19.9816 3.91436 14.8466 6.77571 14.0873 14.109C13.8177 16.7172 13.3931 18.9598 12.8136 20.8655L12.8098 20.8617L12.7333 21.1301C12.5306 21.764 12.3106 22.358 12.0735 22.9158C11.8882 23.317 11.6721 23.7033 11.4271 24.0714C11.0006 24.7072 11.1918 25.1318 11.3697 25.3069C11.7139 25.6572 13.416 25.8895 14.3933 25.1889ZM20.1575 13.1838C21.02 12.6317 21.9361 13.5455 21.3834 14.406C21.3471 14.4631 21.2974 14.5126 21.24 14.5488C20.3755 15.1009 19.4595 14.1871 20.0122 13.3285C20.0504 13.2713 20.1001 13.2219 20.1575 13.1838ZM15.6077 13.1838C16.4722 12.6317 17.3863 13.5455 16.8336 14.406C16.7973 14.4631 16.7476 14.5126 16.6902 14.5488C15.8258 15.1009 14.9097 14.1871 15.4643 13.3285C15.5026 13.2713 15.5504 13.2219 15.6077 13.1838Z" fill="#FF6B00"/>
</svg>
